<?xml version="1.0" encoding="utf-8" ?>
<svg baseProfile="full" height="1254" version="1.1" viewBox="0 0 1254 1254" width="1254" xmlns="http://www.w3.org/2000/svg" xmlns:ev="http://www.w3.org/2001/xml-events" xmlns:xlink="http://www.w3.org/1999/xlink"><defs /><path d="M 1015.0,954.5 L 1014.0,954.5 L 1013.0,954.5 L 1012.0,954.5 L 1011.0,954.5 L 1010.0,954.5 L 1009.0,954.5 L 1008.0,954.5 L 1007.0,954.5 L 1006.0,954.5 L 1005.0,954.5 L 1004.0,954.5 L 1003.0,954.5 L 1002.0,954.5 L 1001.0,954.5 L 1000.0,954.5 L 999.0,954.5 L 998.0,954.5 L 997.0,954.5 L 996.0,954.5 L 995.0,954.5 L 994.0,954.5 L 993.0,954.5 L 992.0,954.5 L 991.0,954.5 L 990.0,954.5 L 989.0,954.5 L 988.0,954.5 L 987.0,954.5 L 986.0,954.5 L 985.0,954.5 L 984.0,954.5 L 983.0,954.5 L 982.0,954.5 L 981.0,954.5 L 980.0,954.5 L 979.0,954.5 L 978.0,954.5 L 977.0,954.5 L 976.0,954.5 L 975.0,954.5 L 974.0,954.5 L 973.0,954.5 L 972.0,954.5 L 971.0,954.5 L 970.0,954.5 L 969.0,954.5 L 968.0,954.5 L 967.0,954.5 L 966.0,954.5 L 965.0,954.5 L 964.0,954.5 L 963.0,954.5 L 962.0,954.5 L 961.0,954.5 L 960.0,954.5 L 959.0,954.5 L 958.0,954.5 L 957.0,954.5 L 956.0,954.5 L 955.0,954.5 L 954.0,954.5 L 953.0,954.5 L 952.0,954.5 L 951.0,954.5 L 950.0,954.5 L 949.0,954.5 L 948.0,954.5 L 947.0,954.5 L 946.0,954.5 L 945.0,954.5 L 944.0,954.5 L 943.0,954.5 L 942.0,954.5 L 941.0,954.5 L 940.0,954.5 L 939.0,954.5 L 938.0,954.5 L 937.0,954.5 L 936.0,954.5 L 935.0,954.5 L 934.0,954.5 L 933.0,954.5 L 932.0,954.5 L 931.0,954.5 L 930.0,954.5 L 929.0,954.5 L 928.0,954.5 L 927.0,954.5 L 926.0,954.5 L 925.0,954.5 L 924.0,954.5 L 923.0,954.5 L 922.0,954.5 L 921.0,954.5 L 920.0,954.5 L 919.0,954.5 L 918.0,954.5 L 917.0,954.5 L 916.0,954.5 L 915.0,954.5 L 914.0,954.5 L 913.0,954.5 L 912.0,954.5 L 911.0,954.5 L 910.0,954.5 L 909.0,954.5 L 908.0,954.5 L 907.0,954.5 L 906.0,954.5 L 905.0,954.5 L 904.0,954.5 L 903.0,954.5 L 902.0,954.5 L 901.0,954.5 L 900.0,954.5 L 899.0,954.5 L 898.0,954.5 L 897.0,954.5 L 896.0,954.5 L 895.0,954.5 L 894.0,954.5 L 893.0,954.5 L 892.0,954.5 L 891.0,954.5 L 890.0,954.5 L 889.0,954.5 L 888.0,954.5 L 887.0,954.5 L 886.0,954.5 L 885.0,954.5 L 884.0,954.5 L 883.0,954.5 L 882.0,954.5 L 881.5,954.0 L 881.0,953.5 L 880.0,953.5 L 879.0,953.5 L 878.5,953.0 L 878.0,952.5 L 877.0,952.5 L 876.5,952.0 L 876.0,951.5 L 875.0,951.5 L 874.5,951.0 L 874.0,950.5 L 873.0,950.5 L 872.5,950.0 L 872.0,949.5 L 871.5,949.0 L 871.0,948.5 L 870.5,948.0 L 870.0,947.5 L 869.5,947.0 L 869.0,946.5 L 868.5,946.0 L 868.0,945.5 L 867.5,945.0 L 867.5,944.0 L 867.0,943.5 L 866.5,943.0 L 866.0,942.5 L 865.5,942.0 L 865.0,941.5 L 864.5,941.0 L 864.0,940.5 L 863.5,940.0 L 863.0,939.5 L 862.5,939.0 L 862.5,938.0 L 862.0,937.5 L 861.5,937.0 L 861.0,936.5 L 860.5,936.0 L 860.0,935.5 L 859.5,935.0 L 859.0,934.5 L 858.5,934.0 L 858.5,933.0 L 858.0,932.5 L 857.5,932.0 L 857.0,931.5 L 856.5,931.0 L 856.0,930.5 L 855.5,930.0 L 855.0,929.5 L 854.5,929.0 L 854.0,928.5 L 853.5,928.0 L 853.5,927.0 L 853.0,926.5 L 852.5,926.0 L 852.0,925.5 L 851.5,925.0 L 851.0,924.5 L 850.5,924.0 L 850.0,923.5 L 849.5,923.0 L 849.0,922.5 L 848.5,922.0 L 848.5,921.0 L 848.0,920.5 L 847.5,920.0 L 847.0,919.5 L 846.5,919.0 L 846.0,918.5 L 845.5,918.0 L 845.0,917.5 L 844.5,917.0 L 844.5,916.0 L 844.0,915.5 L 843.5,915.0 L 843.0,914.5 L 842.5,914.0 L 842.0,913.5 L 841.5,913.0 L 841.0,912.5 L 840.5,912.0 L 840.0,911.5 L 839.5,911.0 L 839.5,910.0 L 839.0,909.5 L 838.5,909.0 L 838.0,908.5 L 837.5,908.0 L 837.0,907.5 L 836.5,907.0 L 836.0,906.5 L 835.5,906.0 L 835.0,905.5 L 834.5,905.0 L 834.5,904.0 L 834.0,903.5 L 833.5,903.0 L 833.0,902.5 L 832.5,902.0 L 832.0,901.5 L 831.5,901.0 L 831.0,900.5 L 830.5,900.0 L 830.5,899.0 L 830.0,898.5 L 829.5,898.0 L 829.0,897.5 L 828.5,897.0 L 828.0,896.5 L 827.5,896.0 L 827.0,895.5 L 826.5,895.0 L 826.0,894.5 L 825.5,894.0 L 825.5,893.0 L 825.0,892.5 L 824.5,892.0 L 824.0,891.5 L 823.5,891.0 L 823.0,890.5 L 822.5,890.0 L 822.0,889.5 L 821.5,889.0 L 821.0,888.5 L 820.5,888.0 L 820.0,887.5 L 819.5,887.0 L 819.5,886.0 L 819.0,885.5 L 818.5,885.0 L 818.0,884.5 L 817.5,884.0 L 817.0,883.5 L 816.5,883.0 L 816.0,882.5 L 815.5,882.0 L 815.5,881.0 L 815.0,880.5 L 814.5,880.0 L 814.0,879.5 L 813.5,879.0 L 813.0,878.5 L 812.5,878.0 L 812.0,877.5 L 811.5,877.0 L 811.0,876.5 L 810.5,876.0 L 810.5,875.0 L 810.0,874.5 L 809.5,874.0 L 809.0,873.5 L 808.5,873.0 L 808.0,872.5 L 807.5,872.0 L 807.0,871.5 L 806.5,871.0 L 806.5,870.0 L 806.0,869.5 L 805.5,869.0 L 805.0,868.5 L 804.5,868.0 L 804.0,867.5 L 803.5,867.0 L 803.0,866.5 L 802.5,866.0 L 802.0,865.5 L 801.5,865.0 L 801.5,864.0 L 801.0,863.5 L 800.5,863.0 L 800.0,862.5 L 799.5,862.0 L 799.0,861.5 L 798.5,861.0 L 798.0,860.5 L 797.5,860.0 L 797.0,859.5 L 796.5,859.0 L 796.5,858.0 L 796.0,857.5 L 795.5,857.0 L 795.0,856.5 L 794.5,856.0 L 794.0,855.5 L 793.5,855.0 L 793.0,854.5 L 792.5,854.0 L 792.5,853.0 L 792.0,852.5 L 791.5,852.0 L 791.0,851.5 L 790.5,851.0 L 790.0,850.5 L 789.5,850.0 L 789.0,849.5 L 788.5,849.0 L 788.0,848.5 L 787.5,848.0 L 787.0,847.5 L 786.5,847.0 L 786.5,846.0 L 786.0,845.5 L 785.5,845.0 L 785.0,844.5 L 784.5,844.0 L 784.0,843.5 L 783.5,843.0 L 783.0,842.5 L 782.5,842.0 L 782.5,841.0 L 782.0,840.5 L 781.5,840.0 L 781.0,839.5 L 780.5,839.0 L 780.0,838.5 L 779.5,838.0 L 779.0,837.5 L 778.5,837.0 L 778.0,836.5 L 777.5,836.0 L 777.5,835.0 L 777.0,834.5 L 776.5,834.0 L 776.0,833.5 L 775.5,833.0 L 775.0,832.5 L 774.5,832.0 L 774.0,831.5 L 773.5,831.0 L 773.0,830.5 L 772.5,830.0 L 772.5,829.0 L 772.0,828.5 L 771.5,828.0 L 771.0,827.5 L 770.5,827.0 L 770.0,826.5 L 769.5,826.0 L 769.0,825.5 L 768.5,825.0 L 768.0,824.5 L 767.5,824.0 L 767.5,823.0 L 767.0,822.5 L 766.5,822.0 L 766.0,821.5 L 765.5,821.0 L 765.0,820.5 L 764.5,820.0 L 764.0,819.5 L 763.5,819.0 L 763.0,818.5 L 762.5,818.0 L 762.5,817.0 L 762.0,816.5 L 761.5,816.0 L 761.0,815.5 L 760.5,815.0 L 760.0,814.5 L 759.5,814.0 L 759.0,813.5 L 758.5,813.0 L 758.0,812.5 L 757.5,812.0 L 757.5,811.0 L 757.0,810.5 L 756.5,810.0 L 756.0,809.5 L 755.5,809.0 L 755.0,808.5 L 754.5,808.0 L 754.0,807.5 L 753.5,807.0 L 753.5,806.0 L 753.0,805.5 L 752.5,805.0 L 752.0,804.5 L 751.5,804.0 L 751.0,803.5 L 750.5,803.0 L 750.0,802.5 L 749.5,802.0 L 749.0,801.5 L 748.5,801.0 L 748.5,800.0 L 748.0,799.5 L 747.5,799.0 L 747.0,798.5 L 746.5,798.0 L 746.0,797.5 L 745.5,797.0 L 745.0,796.5 L 744.5,796.0 L 744.0,795.5 L 743.5,795.0 L 743.5,794.0 L 743.0,793.5 L 742.5,793.0 L 742.0,792.5 L 741.5,792.0 L 741.0,791.5 L 740.5,791.0 L 740.0,790.5 L 739.5,790.0 L 739.0,789.5 L 738.5,789.0 L 738.5,788.0 L 738.0,787.5 L 737.5,787.0 L 737.0,786.5 L 736.5,786.0 L 736.0,785.5 L 735.5,785.0 L 735.0,784.5 L 734.5,784.0 L 734.0,783.5 L 733.5,783.0 L 733.5,782.0 L 733.0,781.5 L 732.5,781.0 L 732.0,780.5 L 731.5,780.0 L 731.0,779.5 L 730.5,779.0 L 730.0,778.5 L 729.5,778.0 L 729.0,777.5 L 728.5,777.0 L 728.5,776.0 L 728.0,775.5 L 727.5,775.0 L 727.0,774.5 L 726.5,774.0 L 726.0,773.5 L 725.5,773.0 L 725.0,772.5 L 724.5,772.0 L 724.0,771.5 L 723.5,771.0 L 723.5,770.0 L 723.0,769.5 L 722.5,769.0 L 722.0,768.5 L 721.5,768.0 L 721.0,767.5 L 720.5,767.0 L 720.0,766.5 L 719.5,766.0 L 719.0,765.5 L 718.5,765.0 L 718.5,764.0 L 718.0,763.5 L 717.5,763.0 L 717.0,762.5 L 716.5,762.0 L 716.0,761.5 L 715.5,761.0 L 715.0,760.5 L 714.5,760.0 L 714.0,759.5 L 713.5,759.0 L 713.0,758.5 L 712.5,758.0 L 712.5,757.0 L 712.0,756.5 L 711.5,756.0 L 711.0,755.5 L 710.5,755.0 L 710.0,754.5 L 709.5,754.0 L 709.0,753.5 L 708.5,753.0 L 708.0,752.5 L 707.5,752.0 L 707.5,751.0 L 707.0,750.5 L 706.5,750.0 L 706.0,749.5 L 705.5,749.0 L 705.0,748.5 L 704.5,748.0 L 704.0,747.5 L 703.5,747.0 L 703.5,746.0 L 703.0,745.5 L 702.5,745.0 L 702.0,744.5 L 701.5,744.0 L 701.0,743.5 L 700.5,743.0 L 700.0,742.5 L 699.5,742.0 L 699.0,741.5 L 698.5,741.0 L 698.5,740.0 L 698.0,739.5 L 697.5,739.0 L 697.0,738.5 L 696.5,738.0 L 696.0,737.5 L 695.5,737.0 L 695.0,736.5 L 694.5,736.0 L 694.0,735.5 L 693.5,735.0 L 693.5,734.0 L 693.0,733.5 L 692.5,733.0 L 692.0,732.5 L 691.5,732.0 L 691.0,731.5 L 690.5,731.0 L 690.0,730.5 L 689.5,730.0 L 689.0,729.5 L 688.5,729.0 L 688.5,728.0 L 688.0,727.5 L 687.5,727.0 L 687.0,726.5 L 686.5,726.0 L 686.0,725.5 L 685.5,725.0 L 685.0,724.5 L 684.5,724.0 L 684.0,723.5 L 683.5,723.0 L 683.5,722.0 L 683.0,721.5 L 682.5,721.0 L 682.0,720.5 L 681.5,720.0 L 681.0,719.5 L 680.5,719.0 L 680.0,718.5 L 679.5,718.0 L 679.0,717.5 L 678.5,717.0 L 678.5,716.0 L 678.0,715.5 L 677.5,715.0 L 677.0,714.5 L 676.5,714.0 L 676.0,713.5 L 675.5,713.0 L 675.0,712.5 L 674.5,712.0 L 674.0,711.5 L 673.5,711.0 L 673.5,710.0 L 673.0,709.5 L 672.5,709.0 L 672.0,708.5 L 671.5,708.0 L 671.0,707.5 L 670.5,707.0 L 670.0,706.5 L 669.5,706.0 L 669.5,705.0 L 669.0,704.5 L 668.5,704.0 L 668.0,703.5 L 667.5,703.0 L 667.0,702.5 L 666.5,702.0 L 666.0,701.5 L 665.5,701.0 L 665.0,700.5 L 664.5,700.0 L 664.5,699.0 L 664.0,698.5 L 663.5,698.0 L 663.0,697.5 L 662.5,697.0 L 662.0,696.5 L 661.5,696.0 L 661.0,695.5 L 660.5,695.0 L 660.0,694.5 L 659.5,694.0 L 659.5,693.0 L 659.0,692.5 L 658.5,692.0 L 658.0,691.5 L 657.5,691.0 L 657.0,690.5 L 656.5,690.0 L 656.0,689.5 L 655.5,689.0 L 655.5,688.0 L 655.0,687.5 L 654.5,687.0 L 654.0,686.5 L 653.5,686.0 L 653.0,685.5 L 652.5,685.0 L 652.0,684.5 L 651.5,684.0 L 651.0,683.5 L 650.5,683.0 L 650.5,682.0 L 650.0,681.5 L 649.5,681.0 L 649.0,680.5 L 648.5,680.0 L 648.0,679.5 L 647.5,679.0 L 647.0,678.5 L 646.5,678.0 L 646.0,677.5 L 645.5,677.0 L 645.0,676.5 L 644.5,676.0 L 644.5,675.0 L 644.0,674.5 L 643.5,674.0 L 643.0,673.5 L 642.5,673.0 L 642.0,672.5 L 641.5,672.0 L 641.0,671.5 L 640.5,671.0 L 640.0,670.5 L 639.5,670.0 L 639.5,669.0 L 639.0,668.5 L 638.5,668.0 L 638.0,667.5 L 637.5,667.0 L 637.0,666.5 L 636.5,666.0 L 636.0,665.5 L 635.5,665.0 L 635.0,664.5 L 634.5,664.0 L 634.5,663.0 L 634.0,662.5 L 633.5,662.0 L 633.0,661.5 L 632.5,661.0 L 632.0,660.5 L 631.5,660.0 L 631.0,659.5 L 630.5,659.0 L 630.0,658.5 L 629.5,658.0 L 629.0,657.5 L 628.5,657.0 L 628.5,656.0 L 628.0,655.5 L 627.5,655.0 L 627.0,654.5 L 626.5,654.0 L 626.5,653.0 L 626.5,652.0 L 626.5,651.0 L 626.5,650.0 L 626.5,649.0 L 626.5,648.0 L 626.5,647.0 L 627.0,646.5 L 627.5,646.0 L 628.0,645.5 L 628.5,645.0 L 629.0,644.5 L 629.5,644.0 L 630.0,643.5 L 630.5,643.0 L 631.0,642.5 L 632.0,642.5 L 632.5,642.0 L 633.0,641.5 L 634.0,641.5 L 634.5,641.0 L 635.0,640.5 L 636.0,640.5 L 636.5,640.0 L 637.0,639.5 L 638.0,639.5 L 639.0,639.5 L 639.5,639.0 L 640.0,638.5 L 641.0,638.5 L 642.0,638.5 L 643.0,638.5 L 644.0,638.5 L 645.0,638.5 L 645.5,638.0 L 646.0,637.5 L 647.0,637.5 L 648.0,637.5 L 649.0,637.5 L 650.0,637.5 L 651.0,637.5 L 652.0,637.5 L 653.0,637.5 L 654.0,637.5 L 655.0,637.5 L 656.0,637.5 L 657.0,637.5 L 658.0,637.5 L 659.0,637.5 L 660.0,637.5 L 661.0,637.5 L 662.0,637.5 L 663.0,637.5 L 664.0,637.5 L 665.0,637.5 L 666.0,637.5 L 667.0,637.5 L 667.5,637.0 L 668.0,636.5 L 669.0,636.5 L 670.0,636.5 L 671.0,636.5 L 672.0,636.5 L 673.0,636.5 L 674.0,636.5 L 675.0,636.5 L 676.0,636.5 L 677.0,636.5 L 678.0,636.5 L 679.0,636.5 L 680.0,636.5 L 681.0,636.5 L 682.0,636.5 L 683.0,636.5 L 684.0,636.5 L 685.0,636.5 L 686.0,636.5 L 687.0,636.5 L 688.0,636.5 L 689.0,636.5 L 690.0,636.5 L 691.0,636.5 L 692.0,636.5 L 693.0,636.5 L 694.0,636.5 L 695.0,636.5 L 696.0,636.5 L 697.0,636.5 L 698.0,636.5 L 699.0,636.5 L 700.0,636.5 L 701.0,636.5 L 701.5,637.0 L 702.0,637.5 L 702.5,637.0 L 703.0,636.5 L 704.0,636.5 L 705.0,636.5 L 706.0,636.5 L 707.0,636.5 L 708.0,636.5 L 709.0,636.5 L 710.0,636.5 L 711.0,636.5 L 712.0,636.5 L 713.0,636.5 L 713.5,636.0 L 714.0,635.5 L 715.0,635.5 L 716.0,635.5 L 717.0,635.5 L 718.0,635.5 L 719.0,635.5 L 720.0,635.5 L 720.5,635.0 L 721.0,634.5 L 722.0,634.5 L 723.0,634.5 L 724.0,634.5 L 724.5,634.0 L 725.0,633.5 L 726.0,633.5 L 727.0,633.5 L 728.0,633.5 L 728.5,633.0 L 729.0,632.5 L 730.0,632.5 L 731.0,632.5 L 731.5,632.0 L 732.0,631.5 L 733.0,631.5 L 734.0,631.5 L 734.5,631.0 L 735.0,630.5 L 736.0,630.5 L 737.0,630.5 L 737.5,630.0 L 738.0,629.5 L 739.0,629.5 L 739.5,629.0 L 740.0,628.5 L 741.0,628.5 L 741.5,628.0 L 742.0,627.5 L 743.0,627.5 L 744.0,627.5 L 744.5,627.0 L 745.0,626.5 L 746.0,626.5 L 746.5,626.0 L 747.0,625.5 L 747.5,625.0 L 748.0,624.5 L 749.0,624.5 L 749.5,624.0 L 750.0,623.5 L 751.0,623.5 L 751.5,623.0 L 752.0,622.5 L 753.0,622.5 L 753.5,622.0 L 754.0,621.5 L 754.5,621.0 L 755.0,620.5 L 756.0,620.5 L 756.5,620.0 L 757.0,619.5 L 758.0,619.5 L 758.5,619.0 L 759.0,618.5 L 759.5,618.0 L 760.0,617.5 L 760.5,617.0 L 761.0,616.5 L 762.0,616.5 L 762.5,616.0 L 763.0,615.5 L 763.5,615.0 L 764.0,614.5 L 764.5,614.0 L 765.0,613.5 L 765.5,613.0 L 766.0,612.5 L 766.5,612.0 L 767.0,611.5 L 768.0,611.5 L 768.5,611.0 L 769.0,610.5 L 769.5,610.0 L 770.0,609.5 L 770.5,609.0 L 771.0,608.5 L 771.5,608.0 L 772.0,607.5 L 772.5,607.0 L 773.0,606.5 L 773.5,606.0 L 774.0,605.5 L 774.5,605.0 L 775.0,604.5 L 775.5,604.0 L 776.0,603.5 L 776.5,603.0 L 777.0,602.5 L 777.5,602.0 L 777.5,601.0 L 778.0,600.5 L 778.5,600.0 L 779.0,599.5 L 779.5,599.0 L 780.0,598.5 L 780.5,598.0 L 781.0,597.5 L 781.5,597.0 L 781.5,596.0 L 782.0,595.5 L 782.5,595.0 L 783.0,594.5 L 783.5,594.0 L 783.5,593.0 L 784.0,592.5 L 784.5,592.0 L 785.0,591.5 L 785.5,591.0 L 786.0,590.5 L 786.5,590.0 L 786.5,589.0 L 787.0,588.5 L 787.5,588.0 L 787.5,587.0 L 788.0,586.5 L 788.5,586.0 L 789.0,585.5 L 789.5,585.0 L 789.5,584.0 L 790.0,583.5 L 790.5,583.0 L 790.5,582.0 L 791.0,581.5 L 791.5,581.0 L 791.5,580.0 L 792.0,579.5 L 792.5,579.0 L 792.5,578.0 L 793.0,577.5 L 793.5,577.0 L 793.5,576.0 L 794.0,575.5 L 794.5,575.0 L 794.5,574.0 L 795.0,573.5 L 795.5,573.0 L 795.5,572.0 L 796.0,571.5 L 796.5,571.0 L 796.5,570.0 L 797.0,569.5 L 797.5,569.0 L 797.5,568.0 L 797.5,567.0 L 798.0,566.5 L 798.5,566.0 L 798.5,565.0 L 798.5,564.0 L 799.0,563.5 L 799.5,563.0 L 799.5,562.0 L 799.5,561.0 L 799.5,560.0 L 800.0,559.5 L 800.5,559.0 L 800.5,558.0 L 800.5,557.0 L 800.5,556.0 L 801.0,555.5 L 801.5,555.0 L 801.5,554.0 L 801.5,553.0 L 801.5,552.0 L 801.5,551.0 L 802.0,550.5 L 802.5,550.0 L 802.5,549.0 L 802.5,548.0 L 802.5,547.0 L 802.5,546.0 L 802.5,545.0 L 803.0,544.5 L 803.5,544.0 L 803.5,543.0 L 803.5,542.0 L 803.5,541.0 L 803.5,540.0 L 803.5,539.0 L 803.5,538.0 L 803.5,537.0 L 803.5,536.0 L 803.5,535.0 L 803.5,534.0 L 803.5,533.0 L 803.5,532.0 L 803.5,531.0 L 803.5,530.0 L 803.5,529.0 L 803.5,528.0 L 803.5,527.0 L 803.5,526.0 L 803.5,525.0 L 803.5,524.0 L 803.5,523.0 L 803.0,522.5 L 802.5,522.0 L 802.5,521.0 L 802.5,520.0 L 802.5,519.0 L 802.5,518.0 L 802.5,517.0 L 802.5,516.0 L 802.5,515.0 L 802.0,514.5 L 801.5,514.0 L 801.5,513.0 L 801.5,512.0 L 801.5,511.0 L 801.5,510.0 L 801.0,509.5 L 800.5,509.0 L 800.5,508.0 L 800.5,507.0 L 800.5,506.0 L 800.0,505.5 L 799.5,505.0 L 799.5,504.0 L 799.5,503.0 L 799.5,502.0 L 799.0,501.5 L 798.5,501.0 L 798.5,500.0 L 798.5,499.0 L 798.0,498.5 L 797.5,498.0 L 797.5,497.0 L 797.5,496.0 L 797.0,495.5 L 796.5,495.0 L 796.5,494.0 L 796.0,493.5 L 795.5,493.0 L 795.5,492.0 L 795.5,491.0 L 795.0,490.5 L 794.5,490.0 L 794.5,489.0 L 794.0,488.5 L 793.5,488.0 L 793.5,487.0 L 793.0,486.5 L 792.5,486.0 L 792.5,485.0 L 792.0,484.5 L 791.5,484.0 L 791.5,483.0 L 791.0,482.5 L 790.5,482.0 L 790.0,481.5 L 789.5,481.0 L 789.5,480.0 L 789.0,479.5 L 788.5,479.0 L 788.5,478.0 L 788.0,477.5 L 787.5,477.0 L 787.0,476.5 L 786.5,476.0 L 786.5,475.0 L 786.0,474.5 L 785.5,474.0 L 785.0,473.5 L 784.5,473.0 L 784.5,472.0 L 784.0,471.5 L 783.5,471.0 L 783.0,470.5 L 782.5,470.0 L 782.5,469.0 L 782.0,468.5 L 781.5,468.0 L 781.0,467.5 L 780.5,467.0 L 780.0,466.5 L 779.5,466.0 L 779.0,465.5 L 778.5,465.0 L 778.0,464.5 L 777.5,464.0 L 777.5,463.0 L 777.0,462.5 L 776.5,462.0 L 776.0,461.5 L 775.5,461.0 L 775.0,460.5 L 774.5,460.0 L 774.0,459.5 L 773.5,459.0 L 773.0,458.5 L 772.5,458.0 L 772.0,457.5 L 771.5,457.0 L 771.0,456.5 L 770.5,456.0 L 770.0,455.5 L 769.5,455.0 L 769.0,454.5 L 768.5,454.0 L 768.0,453.5 L 767.5,453.0 L 767.0,452.5 L 766.0,452.5 L 765.5,452.0 L 765.0,451.5 L 764.5,451.0 L 764.0,450.5 L 763.5,450.0 L 763.0,449.5 L 762.5,449.0 L 762.0,448.5 L 761.0,448.5 L 760.5,448.0 L 760.0,447.5 L 759.5,447.0 L 759.0,446.5 L 758.5,446.0 L 758.0,445.5 L 757.0,445.5 L 756.5,445.0 L 756.0,444.5 L 755.5,444.0 L 755.0,443.5 L 754.0,443.5 L 753.5,443.0 L 753.0,442.5 L 752.5,442.0 L 752.0,441.5 L 751.0,441.5 L 750.5,441.0 L 750.0,440.5 L 749.0,440.5 L 748.5,440.0 L 748.0,439.5 L 747.0,439.5 L 746.5,439.0 L 746.0,438.5 L 745.0,438.5 L 744.5,438.0 L 744.0,437.5 L 743.0,437.5 L 742.5,437.0 L 742.0,436.5 L 741.0,436.5 L 740.5,436.0 L 740.0,435.5 L 739.0,435.5 L 738.5,435.0 L 738.0,434.5 L 737.0,434.5 L 736.0,434.5 L 735.5,434.0 L 735.0,433.5 L 734.0,433.5 L 733.5,433.0 L 733.0,432.5 L 732.0,432.5 L 731.0,432.5 L 730.5,432.0 L 730.0,431.5 L 729.0,431.5 L 728.0,431.5 L 727.5,431.0 L 727.0,430.5 L 726.0,430.5 L 725.0,430.5 L 724.5,430.0 L 724.0,429.5 L 723.0,429.5 L 722.0,429.5 L 721.0,429.5 L 720.0,429.5 L 719.5,429.0 L 719.0,428.5 L 718.0,428.5 L 717.0,428.5 L 716.0,428.5 L 715.0,428.5 L 714.5,428.0 L 714.0,427.5 L 713.0,427.5 L 712.0,427.5 L 711.0,427.5 L 710.0,427.5 L 709.0,427.5 L 708.0,427.5 L 707.0,427.5 L 706.0,427.5 L 705.5,427.0 L 705.0,426.5 L 704.0,426.5 L 703.0,426.5 L 702.0,426.5 L 701.0,426.5 L 700.0,426.5 L 699.0,426.5 L 698.0,426.5 L 697.0,426.5 L 696.0,426.5 L 695.0,426.5 L 694.0,426.5 L 693.0,426.5 L 692.0,426.5 L 691.0,426.5 L 690.0,426.5 L 689.0,426.5 L 688.0,426.5 L 687.0,426.5 L 686.0,426.5 L 685.0,426.5 L 684.0,426.5 L 683.0,426.5 L 682.0,426.5 L 681.0,426.5 L 680.0,426.5 L 679.0,426.5 L 678.0,426.5 L 677.0,426.5 L 676.0,426.5 L 675.0,426.5 L 674.0,426.5 L 673.0,426.5 L 672.0,426.5 L 671.0,426.5 L 670.0,426.5 L 669.0,426.5 L 668.0,426.5 L 667.0,426.5 L 666.0,426.5 L 665.0,426.5 L 664.0,426.5 L 663.0,426.5 L 662.0,426.5 L 661.0,426.5 L 660.0,426.5 L 659.0,426.5 L 658.0,426.5 L 657.0,426.5 L 656.0,426.5 L 655.0,426.5 L 654.0,426.5 L 653.0,426.5 L 652.0,426.5 L 651.0,426.5 L 650.0,426.5 L 649.0,426.5 L 648.0,426.5 L 647.0,426.5 L 646.0,426.5 L 645.0,426.5 L 644.0,426.5 L 643.0,426.5 L 642.0,426.5 L 641.0,426.5 L 640.0,426.5 L 639.0,426.5 L 638.0,426.5 L 637.0,426.5 L 636.0,426.5 L 635.0,426.5 L 634.0,426.5 L 633.0,426.5 L 632.0,426.5 L 631.0,426.5 L 630.0,426.5 L 629.0,426.5 L 628.0,426.5 L 627.0,426.5 L 626.0,426.5 L 625.0,426.5 L 624.0,426.5 L 623.0,426.5 L 622.0,426.5 L 621.0,426.5 L 620.0,426.5 L 619.0,426.5 L 618.0,426.5 L 617.0,426.5 L 616.0,426.5 L 615.0,426.5 L 614.0,426.5 L 613.0,426.5 L 612.0,426.5 L 611.0,426.5 L 610.0,426.5 L 609.0,426.5 L 608.0,426.5 L 607.0,426.5 L 606.0,426.5 L 605.0,426.5 L 604.0,426.5 L 603.0,426.5 L 602.0,426.5 L 601.0,426.5 L 600.0,426.5 L 599.0,426.5 L 598.0,426.5 L 597.0,426.5 L 596.0,426.5 L 595.0,426.5 L 594.0,426.5 L 593.0,426.5 L 592.0,426.5 L 591.0,426.5 L 590.0,426.5 L 589.0,426.5 L 588.0,426.5 L 587.0,426.5 L 586.0,426.5 L 585.0,426.5 L 584.0,426.5 L 583.0,426.5 L 582.0,426.5 L 581.0,426.5 L 580.0,426.5 L 579.0,426.5 L 578.0,426.5 L 577.0,426.5 L 576.0,426.5 L 575.0,426.5 L 574.0,426.5 L 573.0,426.5 L 572.0,426.5 L 571.0,426.5 L 570.0,426.5 L 569.0,426.5 L 568.0,426.5 L 567.0,426.5 L 566.0,426.5 L 565.0,426.5 L 564.0,426.5 L 563.0,426.5 L 562.0,426.5 L 561.0,426.5 L 560.0,426.5 L 559.0,426.5 L 558.0,426.5 L 557.0,426.5 L 556.0,426.5 L 555.0,426.5 L 554.0,426.5 L 553.0,426.5 L 552.0,426.5 L 551.0,426.5 L 550.0,426.5 L 549.0,426.5 L 548.0,426.5 L 547.0,426.5 L 546.0,426.5 L 545.0,426.5 L 544.0,426.5 L 543.0,426.5 L 542.0,426.5 L 541.0,426.5 L 540.0,426.5 L 539.0,426.5 L 538.0,426.5 L 537.0,426.5 L 536.0,426.5 L 535.0,426.5 L 534.0,426.5 L 533.0,426.5 L 532.0,426.5 L 531.0,426.5 L 530.0,426.5 L 529.0,426.5 L 528.0,426.5 L 527.0,426.5 L 526.0,426.5 L 525.0,426.5 L 524.0,426.5 L 523.0,426.5 L 522.0,426.5 L 521.0,426.5 L 520.0,426.5 L 519.0,426.5 L 518.0,426.5 L 517.0,426.5 L 516.0,426.5 L 515.0,426.5 L 514.0,426.5 L 513.0,426.5 L 512.0,426.5 L 511.0,426.5 L 510.0,426.5 L 509.0,426.5 L 508.0,426.5 L 507.0,426.5 L 506.0,426.5 L 505.0,426.5 L 504.0,426.5 L 503.0,426.5 L 502.0,426.5 L 501.0,426.5 L 500.0,426.5 L 499.0,426.5 L 498.0,426.5 L 497.0,426.5 L 496.0,426.5 L 495.0,426.5 L 494.0,426.5 L 493.0,426.5 L 492.0,426.5 L 491.0,426.5 L 490.0,426.5 L 489.0,426.5 L 488.0,426.5 L 487.0,426.5 L 486.0,426.5 L 485.0,426.5 L 484.0,426.5 L 483.0,426.5 L 482.0,426.5 L 481.0,426.5 L 480.0,426.5 L 479.0,426.5 L 478.0,426.5 L 477.0,426.5 L 476.0,426.5 L 475.0,426.5 L 474.0,426.5 L 473.0,426.5 L 472.0,426.5 L 471.0,426.5 L 470.0,426.5 L 469.0,426.5 L 468.0,426.5 L 467.0,426.5 L 466.0,426.5 L 465.0,426.5 L 464.0,426.5 L 463.0,426.5 L 462.0,426.5 L 461.0,426.5 L 460.0,426.5 L 459.0,426.5 L 458.0,426.5 L 457.0,426.5 L 456.0,426.5 L 455.0,426.5 L 454.0,426.5 L 453.0,426.5 L 452.0,426.5 L 451.0,426.5 L 450.0,426.5 L 449.0,426.5 L 448.0,426.5 L 447.0,426.5 L 446.0,426.5 L 445.0,426.5 L 444.0,426.5 L 443.0,426.5 L 442.0,426.5 L 441.0,426.5 L 440.0,426.5 L 439.0,426.5 L 438.0,426.5 L 437.0,426.5 L 436.0,426.5 L 435.0,426.5 L 434.0,426.5 L 433.0,426.5 L 432.0,426.5 L 431.0,426.5 L 430.0,426.5 L 429.0,426.5 L 428.0,426.5 L 427.0,426.5 L 426.0,426.5 L 425.0,426.5 L 424.0,426.5 L 423.0,426.5 L 422.0,426.5 L 421.0,426.5 L 420.0,426.5 L 419.0,426.5 L 418.0,426.5 L 417.0,426.5 L 416.0,426.5 L 415.0,426.5 L 414.0,426.5 L 413.0,426.5 L 412.0,426.5 L 411.0,426.5 L 410.0,426.5 L 409.0,426.5 L 408.0,426.5 L 407.0,426.5 L 406.0,426.5 L 405.0,426.5 L 404.0,426.5 L 403.0,426.5 L 402.0,426.5 L 401.0,426.5 L 400.0,426.5 L 399.0,426.5 L 398.0,426.5 L 397.0,426.5 L 396.0,426.5 L 395.0,426.5 L 394.0,426.5 L 393.0,426.5 L 392.0,426.5 L 391.0,426.5 L 390.0,426.5 L 389.0,426.5 L 388.0,426.5 L 387.0,426.5 L 386.0,426.5 L 385.0,426.5 L 384.0,426.5 L 383.0,426.5 L 382.0,426.5 L 381.0,426.5 L 380.0,426.5 L 379.0,426.5 L 378.0,426.5 L 377.0,426.5 L 376.0,426.5 L 375.0,426.5 L 374.0,426.5 L 373.0,426.5 L 372.0,426.5 L 371.0,426.5 L 370.0,426.5 L 369.0,426.5 L 368.0,426.5 L 367.0,426.5 L 366.0,426.5 L 365.0,426.5 L 364.0,426.5 L 363.0,426.5 L 362.0,426.5 L 361.0,426.5 L 360.0,426.5 L 359.0,426.5 L 358.0,426.5 L 357.0,426.5 L 356.0,426.5 L 355.0,426.5 L 354.0,426.5 L 353.0,426.5 L 352.0,426.5 L 351.0,426.5 L 350.0,426.5 L 349.0,426.5 L 348.0,426.5 L 347.0,426.5 L 346.0,426.5 L 345.0,426.5 L 344.0,426.5 L 343.0,426.5 L 342.0,426.5 L 341.0,426.5 L 340.0,426.5 L 339.0,426.5 L 338.0,426.5 L 337.0,426.5 L 336.0,426.5 L 335.0,426.5 L 334.0,426.5 L 333.0,426.5 L 332.0,426.5 L 331.0,426.5 L 330.0,426.5 L 329.0,426.5 L 328.0,426.5 L 327.0,426.5 L 326.0,426.5 L 325.0,426.5 L 324.0,426.5 L 323.0,426.5 L 322.0,426.5 L 321.0,426.5 L 320.0,426.5 L 319.0,426.5 L 318.0,426.5 L 317.5,426.0 L 317.0,425.5 L 316.5,425.0 L 316.5,424.0 L 316.5,423.0 L 316.5,422.0 L 316.5,421.0 L 316.5,420.0 L 316.5,419.0 L 316.5,418.0 L 316.5,417.0 L 316.5,416.0 L 316.5,415.0 L 316.5,414.0 L 316.5,413.0 L 316.5,412.0 L 316.5,411.0 L 316.5,410.0 L 316.5,409.0 L 316.5,408.0 L 316.5,407.0 L 316.5,406.0 L 316.5,405.0 L 316.5,404.0 L 316.5,403.0 L 316.5,402.0 L 316.5,401.0 L 316.5,400.0 L 316.5,399.0 L 316.5,398.0 L 316.5,397.0 L 316.5,396.0 L 316.5,395.0 L 316.5,394.0 L 316.5,393.0 L 316.5,392.0 L 316.5,391.0 L 316.5,390.0 L 316.5,389.0 L 316.5,388.0 L 316.5,387.0 L 316.5,386.0 L 316.5,385.0 L 316.5,384.0 L 316.5,383.0 L 316.5,382.0 L 316.5,381.0 L 316.5,380.0 L 316.5,379.0 L 316.5,378.0 L 316.5,377.0 L 316.5,376.0 L 316.5,375.0 L 316.5,374.0 L 316.5,373.0 L 316.5,372.0 L 316.5,371.0 L 316.5,370.0 L 316.5,369.0 L 316.5,368.0 L 316.5,367.0 L 316.5,366.0 L 316.5,365.0 L 316.5,364.0 L 316.5,363.0 L 316.5,362.0 L 316.5,361.0 L 316.5,360.0 L 316.5,359.0 L 316.5,358.0 L 316.5,357.0 L 316.5,356.0 L 316.5,355.0 L 316.5,354.0 L 316.5,353.0 L 316.5,352.0 L 316.5,351.0 L 316.5,350.0 L 316.5,349.0 L 316.5,348.0 L 316.5,347.0 L 316.5,346.0 L 316.5,345.0 L 316.5,344.0 L 316.5,343.0 L 316.5,342.0 L 316.5,341.0 L 316.5,340.0 L 316.5,339.0 L 316.5,338.0 L 316.5,337.0 L 316.5,336.0 L 316.5,335.0 L 316.5,334.0 L 316.5,333.0 L 316.5,332.0 L 316.5,331.0 L 316.5,330.0 L 316.5,329.0 L 316.5,328.0 L 316.5,327.0 L 316.5,326.0 L 316.5,325.0 L 316.5,324.0 L 316.5,323.0 L 316.5,322.0 L 316.5,321.0 L 316.5,320.0 L 316.5,319.0 L 316.5,318.0 L 316.5,317.0 L 316.5,316.0 L 316.5,315.0 L 316.5,314.0 L 316.5,313.0 L 316.5,312.0 L 316.5,311.0 L 316.5,310.0 L 316.5,309.0 L 316.5,308.0 L 316.5,307.0 L 316.5,306.0 L 316.5,305.0 L 316.5,304.0 L 316.5,303.0 L 316.5,302.0 L 316.5,301.0 L 316.5,300.0 L 317.0,299.5 L 317.5,299.0 L 318.0,298.5 L 319.0,298.5 L 320.0,298.5 L 321.0,298.5 L 322.0,298.5 L 323.0,298.5 L 324.0,298.5 L 325.0,298.5 L 326.0,298.5 L 327.0,298.5 L 328.0,298.5 L 329.0,298.5 L 330.0,298.5 L 331.0,298.5 L 332.0,298.5 L 333.0,298.5 L 334.0,298.5 L 335.0,298.5 L 336.0,298.5 L 337.0,298.5 L 338.0,298.5 L 339.0,298.5 L 340.0,298.5 L 341.0,298.5 L 342.0,298.5 L 343.0,298.5 L 344.0,298.5 L 345.0,298.5 L 346.0,298.5 L 347.0,298.5 L 348.0,298.5 L 349.0,298.5 L 350.0,298.5 L 351.0,298.5 L 352.0,298.5 L 353.0,298.5 L 354.0,298.5 L 355.0,298.5 L 356.0,298.5 L 357.0,298.5 L 358.0,298.5 L 359.0,298.5 L 360.0,298.5 L 361.0,298.5 L 362.0,298.5 L 363.0,298.5 L 364.0,298.5 L 365.0,298.5 L 366.0,298.5 L 367.0,298.5 L 368.0,298.5 L 369.0,298.5 L 370.0,298.5 L 371.0,298.5 L 372.0,298.5 L 373.0,298.5 L 374.0,298.5 L 375.0,298.5 L 376.0,298.5 L 377.0,298.5 L 378.0,298.5 L 379.0,298.5 L 380.0,298.5 L 381.0,298.5 L 382.0,298.5 L 383.0,298.5 L 384.0,298.5 L 385.0,298.5 L 386.0,298.5 L 387.0,298.5 L 388.0,298.5 L 389.0,298.5 L 390.0,298.5 L 391.0,298.5 L 392.0,298.5 L 393.0,298.5 L 394.0,298.5 L 395.0,298.5 L 396.0,298.5 L 397.0,298.5 L 398.0,298.5 L 399.0,298.5 L 400.0,298.5 L 401.0,298.5 L 402.0,298.5 L 403.0,298.5 L 404.0,298.5 L 405.0,298.5 L 406.0,298.5 L 407.0,298.5 L 408.0,298.5 L 409.0,298.5 L 410.0,298.5 L 411.0,298.5 L 412.0,298.5 L 413.0,298.5 L 414.0,298.5 L 415.0,298.5 L 416.0,298.5 L 417.0,298.5 L 418.0,298.5 L 419.0,298.5 L 420.0,298.5 L 421.0,298.5 L 422.0,298.5 L 423.0,298.5 L 424.0,298.5 L 425.0,298.5 L 426.0,298.5 L 427.0,298.5 L 428.0,298.5 L 429.0,298.5 L 430.0,298.5 L 431.0,298.5 L 432.0,298.5 L 433.0,298.5 L 434.0,298.5 L 435.0,298.5 L 436.0,298.5 L 437.0,298.5 L 438.0,298.5 L 439.0,298.5 L 440.0,298.5 L 441.0,298.5 L 442.0,298.5 L 443.0,298.5 L 444.0,298.5 L 445.0,298.5 L 446.0,298.5 L 447.0,298.5 L 448.0,298.5 L 449.0,298.5 L 450.0,298.5 L 451.0,298.5 L 452.0,298.5 L 453.0,298.5 L 454.0,298.5 L 455.0,298.5 L 456.0,298.5 L 457.0,298.5 L 458.0,298.5 L 459.0,298.5 L 460.0,298.5 L 461.0,298.5 L 462.0,298.5 L 463.0,298.5 L 464.0,298.5 L 465.0,298.5 L 466.0,298.5 L 467.0,298.5 L 468.0,298.5 L 469.0,298.5 L 470.0,298.5 L 471.0,298.5 L 472.0,298.5 L 473.0,298.5 L 474.0,298.5 L 475.0,298.5 L 476.0,298.5 L 477.0,298.5 L 478.0,298.5 L 479.0,298.5 L 480.0,298.5 L 481.0,298.5 L 482.0,298.5 L 483.0,298.5 L 484.0,298.5 L 485.0,298.5 L 486.0,298.5 L 487.0,298.5 L 488.0,298.5 L 489.0,298.5 L 490.0,298.5 L 491.0,298.5 L 492.0,298.5 L 493.0,298.5 L 494.0,298.5 L 495.0,298.5 L 496.0,298.5 L 497.0,298.5 L 498.0,298.5 L 499.0,298.5 L 500.0,298.5 L 501.0,298.5 L 502.0,298.5 L 503.0,298.5 L 504.0,298.5 L 505.0,298.5 L 506.0,298.5 L 507.0,298.5 L 508.0,298.5 L 509.0,298.5 L 510.0,298.5 L 511.0,298.5 L 512.0,298.5 L 513.0,298.5 L 514.0,298.5 L 515.0,298.5 L 516.0,298.5 L 517.0,298.5 L 518.0,298.5 L 519.0,298.5 L 520.0,298.5 L 521.0,298.5 L 522.0,298.5 L 523.0,298.5 L 524.0,298.5 L 525.0,298.5 L 526.0,298.5 L 527.0,298.5 L 528.0,298.5 L 529.0,298.5 L 530.0,298.5 L 531.0,298.5 L 532.0,298.5 L 533.0,298.5 L 534.0,298.5 L 535.0,298.5 L 536.0,298.5 L 537.0,298.5 L 538.0,298.5 L 539.0,298.5 L 540.0,298.5 L 541.0,298.5 L 542.0,298.5 L 543.0,298.5 L 544.0,298.5 L 545.0,298.5 L 546.0,298.5 L 547.0,298.5 L 548.0,298.5 L 549.0,298.5 L 550.0,298.5 L 551.0,298.5 L 552.0,298.5 L 553.0,298.5 L 554.0,298.5 L 555.0,298.5 L 556.0,298.5 L 557.0,298.5 L 558.0,298.5 L 559.0,298.5 L 560.0,298.5 L 561.0,298.5 L 562.0,298.5 L 563.0,298.5 L 564.0,298.5 L 565.0,298.5 L 566.0,298.5 L 567.0,298.5 L 568.0,298.5 L 569.0,298.5 L 570.0,298.5 L 571.0,298.5 L 572.0,298.5 L 573.0,298.5 L 574.0,298.5 L 575.0,298.5 L 576.0,298.5 L 577.0,298.5 L 578.0,298.5 L 579.0,298.5 L 580.0,298.5 L 581.0,298.5 L 582.0,298.5 L 583.0,298.5 L 584.0,298.5 L 585.0,298.5 L 586.0,298.5 L 587.0,298.5 L 588.0,298.5 L 589.0,298.5 L 590.0,298.5 L 591.0,298.5 L 592.0,298.5 L 593.0,298.5 L 594.0,298.5 L 595.0,298.5 L 596.0,298.5 L 597.0,298.5 L 598.0,298.5 L 599.0,298.5 L 600.0,298.5 L 601.0,298.5 L 602.0,298.5 L 603.0,298.5 L 604.0,298.5 L 605.0,298.5 L 606.0,298.5 L 607.0,298.5 L 608.0,298.5 L 609.0,298.5 L 610.0,298.5 L 611.0,298.5 L 612.0,298.5 L 613.0,298.5 L 614.0,298.5 L 615.0,298.5 L 616.0,298.5 L 617.0,298.5 L 618.0,298.5 L 619.0,298.5 L 620.0,298.5 L 621.0,298.5 L 622.0,298.5 L 623.0,298.5 L 624.0,298.5 L 625.0,298.5 L 626.0,298.5 L 627.0,298.5 L 628.0,298.5 L 629.0,298.5 L 630.0,298.5 L 631.0,298.5 L 632.0,298.5 L 633.0,298.5 L 634.0,298.5 L 635.0,298.5 L 636.0,298.5 L 637.0,298.5 L 638.0,298.5 L 639.0,298.5 L 640.0,298.5 L 641.0,298.5 L 642.0,298.5 L 643.0,298.5 L 644.0,298.5 L 645.0,298.5 L 646.0,298.5 L 647.0,298.5 L 648.0,298.5 L 649.0,298.5 L 650.0,298.5 L 651.0,298.5 L 652.0,298.5 L 653.0,298.5 L 654.0,298.5 L 655.0,298.5 L 656.0,298.5 L 657.0,298.5 L 658.0,298.5 L 659.0,298.5 L 660.0,298.5 L 661.0,298.5 L 662.0,298.5 L 663.0,298.5 L 664.0,298.5 L 665.0,298.5 L 666.0,298.5 L 667.0,298.5 L 668.0,298.5 L 669.0,298.5 L 670.0,298.5 L 671.0,298.5 L 672.0,298.5 L 673.0,298.5 L 674.0,298.5 L 675.0,298.5 L 676.0,298.5 L 677.0,298.5 L 678.0,298.5 L 679.0,298.5 L 680.0,298.5 L 681.0,298.5 L 682.0,298.5 L 683.0,298.5 L 684.0,298.5 L 685.0,298.5 L 686.0,298.5 L 687.0,298.5 L 688.0,298.5 L 689.0,298.5 L 690.0,298.5 L 691.0,298.5 L 692.0,298.5 L 693.0,298.5 L 694.0,298.5 L 695.0,298.5 L 696.0,298.5 L 697.0,298.5 L 698.0,298.5 L 699.0,298.5 L 700.0,298.5 L 701.0,298.5 L 702.0,298.5 L 703.0,298.5 L 704.0,298.5 L 705.0,298.5 L 706.0,298.5 L 707.0,298.5 L 708.0,298.5 L 709.0,298.5 L 710.0,298.5 L 710.5,299.0 L 711.0,299.5 L 712.0,299.5 L 713.0,299.5 L 714.0,299.5 L 715.0,299.5 L 716.0,299.5 L 717.0,299.5 L 718.0,299.5 L 719.0,299.5 L 720.0,299.5 L 721.0,299.5 L 722.0,299.5 L 722.5,300.0 L 723.0,300.5 L 724.0,300.5 L 725.0,300.5 L 726.0,300.5 L 727.0,300.5 L 728.0,300.5 L 729.0,300.5 L 730.0,300.5 L 730.5,301.0 L 731.0,301.5 L 732.0,301.5 L 733.0,301.5 L 734.0,301.5 L 735.0,301.5 L 736.0,301.5 L 736.5,302.0 L 737.0,302.5 L 738.0,302.5 L 739.0,302.5 L 740.0,302.5 L 741.0,302.5 L 742.0,302.5 L 743.0,302.5 L 743.5,303.0 L 744.0,303.5 L 745.0,303.5 L 746.0,303.5 L 747.0,303.5 L 747.5,304.0 L 748.0,304.5 L 749.0,304.5 L 750.0,304.5 L 751.0,304.5 L 751.5,305.0 L 752.0,305.5 L 753.0,305.5 L 754.0,305.5 L 755.0,305.5 L 755.5,306.0 L 756.0,306.5 L 757.0,306.5 L 758.0,306.5 L 759.0,306.5 L 759.5,307.0 L 760.0,307.5 L 761.0,307.5 L 762.0,307.5 L 762.5,308.0 L 763.0,308.5 L 764.0,308.5 L 765.0,308.5 L 765.5,309.0 L 766.0,309.5 L 767.0,309.5 L 768.0,309.5 L 768.5,310.0 L 769.0,310.5 L 770.0,310.5 L 771.0,310.5 L 772.0,310.5 L 772.5,311.0 L 773.0,311.5 L 774.0,311.5 L 774.5,312.0 L 775.0,312.5 L 776.0,312.5 L 777.0,312.5 L 777.5,313.0 L 778.0,313.5 L 779.0,313.5 L 780.0,313.5 L 780.5,314.0 L 781.0,314.5 L 782.0,314.5 L 782.5,315.0 L 783.0,315.5 L 784.0,315.5 L 785.0,315.5 L 785.5,316.0 L 786.0,316.5 L 787.0,316.5 L 787.5,317.0 L 788.0,317.5 L 789.0,317.5 L 789.5,318.0 L 790.0,318.5 L 791.0,318.5 L 792.0,318.5 L 792.5,319.0 L 793.0,319.5 L 794.0,319.5 L 794.5,320.0 L 795.0,320.5 L 796.0,320.5 L 796.5,321.0 L 797.0,321.5 L 798.0,321.5 L 798.5,322.0 L 799.0,322.5 L 800.0,322.5 L 800.5,323.0 L 801.0,323.5 L 802.0,323.5 L 802.5,324.0 L 803.0,324.5 L 804.0,324.5 L 804.5,325.0 L 805.0,325.5 L 806.0,325.5 L 806.5,326.0 L 807.0,326.5 L 808.0,326.5 L 808.5,327.0 L 809.0,327.5 L 809.5,328.0 L 810.0,328.5 L 811.0,328.5 L 811.5,329.0 L 812.0,329.5 L 813.0,329.5 L 813.5,330.0 L 814.0,330.5 L 815.0,330.5 L 815.5,331.0 L 816.0,331.5 L 816.5,332.0 L 817.0,332.5 L 818.0,332.5 L 818.5,333.0 L 819.0,333.5 L 820.0,333.5 L 820.5,334.0 L 821.0,334.5 L 821.5,335.0 L 822.0,335.5 L 823.0,335.5 L 823.5,336.0 L 824.0,336.5 L 824.5,337.0 L 825.0,337.5 L 826.0,337.5 L 826.5,338.0 L 827.0,338.5 L 827.5,339.0 L 828.0,339.5 L 829.0,339.5 L 829.5,340.0 L 830.0,340.5 L 830.5,341.0 L 831.0,341.5 L 832.0,341.5 L 832.5,342.0 L 833.0,342.5 L 833.5,343.0 L 834.0,343.5 L 834.5,344.0 L 835.0,344.5 L 836.0,344.5 L 836.5,345.0 L 837.0,345.5 L 837.5,346.0 L 838.0,346.5 L 838.5,347.0 L 839.0,347.5 L 840.0,347.5 L 840.5,348.0 L 841.0,348.5 L 841.5,349.0 L 842.0,349.5 L 842.5,350.0 L 843.0,350.5 L 843.5,351.0 L 844.0,351.5 L 845.0,351.5 L 845.5,352.0 L 846.0,352.5 L 846.5,353.0 L 847.0,353.5 L 847.5,354.0 L 848.0,354.5 L 848.5,355.0 L 849.0,355.5 L 849.5,356.0 L 850.0,356.5 L 851.0,356.5 L 851.5,357.0 L 852.0,357.5 L 852.5,358.0 L 853.0,358.5 L 853.5,359.0 L 854.0,359.5 L 854.5,360.0 L 855.0,360.5 L 855.5,361.0 L 856.0,361.5 L 856.5,362.0 L 857.0,362.5 L 857.5,363.0 L 858.0,363.5 L 858.5,364.0 L 859.0,364.5 L 859.5,365.0 L 860.0,365.5 L 860.5,366.0 L 861.0,366.5 L 861.5,367.0 L 862.0,367.5 L 862.5,368.0 L 863.0,368.5 L 863.5,369.0 L 864.0,369.5 L 864.5,370.0 L 865.0,370.5 L 865.5,371.0 L 866.0,371.5 L 866.5,372.0 L 867.0,372.5 L 867.5,373.0 L 868.0,373.5 L 868.5,374.0 L 869.0,374.5 L 869.5,375.0 L 870.0,375.5 L 870.5,376.0 L 871.0,376.5 L 871.5,377.0 L 871.5,378.0 L 872.0,378.5 L 872.5,379.0 L 873.0,379.5 L 873.5,380.0 L 874.0,380.5 L 874.5,381.0 L 875.0,381.5 L 875.5,382.0 L 876.0,382.5 L 876.5,383.0 L 877.0,383.5 L 877.5,384.0 L 877.5,385.0 L 878.0,385.5 L 878.5,386.0 L 879.0,386.5 L 879.5,387.0 L 880.0,387.5 L 880.5,388.0 L 881.0,388.5 L 881.5,389.0 L 881.5,390.0 L 882.0,390.5 L 882.5,391.0 L 883.0,391.5 L 883.5,392.0 L 884.0,392.5 L 884.5,393.0 L 884.5,394.0 L 885.0,394.5 L 885.5,395.0 L 886.0,395.5 L 886.5,396.0 L 887.0,396.5 L 887.5,397.0 L 887.5,398.0 L 888.0,398.5 L 888.5,399.0 L 889.0,399.5 L 889.5,400.0 L 889.5,401.0 L 890.0,401.5 L 890.5,402.0 L 891.0,402.5 L 891.5,403.0 L 891.5,404.0 L 892.0,404.5 L 892.5,405.0 L 893.0,405.5 L 893.5,406.0 L 893.5,407.0 L 894.0,407.5 L 894.5,408.0 L 895.0,408.5 L 895.5,409.0 L 895.5,410.0 L 896.0,410.5 L 896.5,411.0 L 896.5,412.0 L 897.0,412.5 L 897.5,413.0 L 898.0,413.5 L 898.5,414.0 L 898.5,415.0 L 899.0,415.5 L 899.5,416.0 L 899.5,417.0 L 900.0,417.5 L 900.5,418.0 L 900.5,419.0 L 901.0,419.5 L 901.5,420.0 L 902.0,420.5 L 902.5,421.0 L 902.5,422.0 L 903.0,422.5 L 903.5,423.0 L 903.5,424.0 L 904.0,424.5 L 904.5,425.0 L 904.5,426.0 L 905.0,426.5 L 905.5,427.0 L 905.5,428.0 L 906.0,428.5 L 906.5,429.0 L 906.5,430.0 L 907.0,430.5 L 907.5,431.0 L 907.5,432.0 L 908.0,432.5 L 908.5,433.0 L 908.5,434.0 L 909.0,434.5 L 909.5,435.0 L 909.5,436.0 L 910.0,436.5 L 910.5,437.0 L 910.5,438.0 L 910.5,439.0 L 911.0,439.5 L 911.5,440.0 L 911.5,441.0 L 912.0,441.5 L 912.5,442.0 L 912.5,443.0 L 913.0,443.5 L 913.5,444.0 L 913.5,445.0 L 913.5,446.0 L 914.0,446.5 L 914.5,447.0 L 914.5,448.0 L 915.0,448.5 L 915.5,449.0 L 915.5,450.0 L 915.5,451.0 L 916.0,451.5 L 916.5,452.0 L 916.5,453.0 L 916.5,454.0 L 917.0,454.5 L 917.5,455.0 L 917.5,456.0 L 918.0,456.5 L 918.5,457.0 L 918.5,458.0 L 918.5,459.0 L 919.0,459.5 L 919.5,460.0 L 919.5,461.0 L 919.5,462.0 L 920.0,462.5 L 920.5,463.0 L 920.5,464.0 L 920.5,465.0 L 920.5,466.0 L 921.0,466.5 L 921.5,467.0 L 921.5,468.0 L 921.5,469.0 L 922.0,469.5 L 922.5,470.0 L 922.5,471.0 L 922.5,472.0 L 923.0,472.5 L 923.5,473.0 L 923.5,474.0 L 923.5,475.0 L 923.5,476.0 L 923.5,477.0 L 924.0,477.5 L 924.5,478.0 L 924.5,479.0 L 924.5,480.0 L 925.0,480.5 L 925.5,481.0 L 925.5,482.0 L 925.5,483.0 L 925.5,484.0 L 925.5,485.0 L 926.0,485.5 L 926.5,486.0 L 926.5,487.0 L 926.5,488.0 L 926.5,489.0 L 926.5,490.0 L 927.0,490.5 L 927.5,491.0 L 927.5,492.0 L 927.5,493.0 L 927.5,494.0 L 927.5,495.0 L 928.0,495.5 L 928.5,496.0 L 928.5,497.0 L 928.5,498.0 L 928.5,499.0 L 928.5,500.0 L 928.5,501.0 L 928.5,502.0 L 929.0,502.5 L 929.5,503.0 L 929.5,504.0 L 929.5,505.0 L 929.5,506.0 L 929.5,507.0 L 929.5,508.0 L 929.5,509.0 L 929.5,510.0 L 930.0,510.5 L 930.5,511.0 L 930.5,512.0 L 930.5,513.0 L 930.5,514.0 L 930.5,515.0 L 930.5,516.0 L 930.5,517.0 L 930.5,518.0 L 930.5,519.0 L 930.5,520.0 L 930.5,521.0 L 930.5,522.0 L 930.5,523.0 L 930.5,524.0 L 930.5,525.0 L 931.0,525.5 L 931.5,526.0 L 931.5,527.0 L 931.5,528.0 L 931.5,529.0 L 931.5,530.0 L 931.5,531.0 L 931.5,532.0 L 931.5,533.0 L 931.5,534.0 L 931.5,535.0 L 931.5,536.0 L 931.5,537.0 L 931.5,538.0 L 931.5,539.0 L 931.5,540.0 L 931.0,540.5 L 930.5,541.0 L 930.5,542.0 L 930.5,543.0 L 930.5,544.0 L 930.5,545.0 L 930.5,546.0 L 930.5,547.0 L 930.5,548.0 L 930.5,549.0 L 930.5,550.0 L 930.5,551.0 L 930.5,552.0 L 930.5,553.0 L 930.5,554.0 L 930.0,554.5 L 929.5,555.0 L 929.5,556.0 L 929.5,557.0 L 929.5,558.0 L 929.5,559.0 L 929.5,560.0 L 929.5,561.0 L 929.5,562.0 L 929.5,563.0 L 929.0,563.5 L 928.5,564.0 L 928.5,565.0 L 928.5,566.0 L 928.5,567.0 L 928.5,568.0 L 928.5,569.0 L 928.0,569.5 L 927.5,570.0 L 927.5,571.0 L 927.5,572.0 L 927.5,573.0 L 927.5,574.0 L 927.5,575.0 L 927.5,576.0 L 927.0,576.5 L 926.5,577.0 L 926.5,578.0 L 926.5,579.0 L 926.5,580.0 L 926.0,580.5 L 925.5,581.0 L 925.5,582.0 L 925.5,583.0 L 925.5,584.0 L 925.0,584.5 L 924.5,585.0 L 924.5,586.0 L 924.5,587.0 L 924.5,588.0 L 924.5,589.0 L 924.0,589.5 L 923.5,590.0 L 923.5,591.0 L 923.5,592.0 L 923.0,592.5 L 922.5,593.0 L 922.5,594.0 L 922.5,595.0 L 922.5,596.0 L 922.0,596.5 L 921.5,597.0 L 921.5,598.0 L 921.5,599.0 L 921.0,599.5 L 920.5,600.0 L 920.5,601.0 L 920.5,602.0 L 920.0,602.5 L 919.5,603.0 L 919.5,604.0 L 919.5,605.0 L 919.0,605.5 L 918.5,606.0 L 918.5,607.0 L 918.5,608.0 L 918.0,608.5 L 917.5,609.0 L 917.5,610.0 L 917.5,611.0 L 917.0,611.5 L 916.5,612.0 L 916.5,613.0 L 916.5,614.0 L 916.0,614.5 L 915.5,615.0 L 915.5,616.0 L 915.5,617.0 L 915.0,617.5 L 914.5,618.0 L 914.5,619.0 L 914.0,619.5 L 913.5,620.0 L 913.5,621.0 L 913.0,621.5 L 912.5,622.0 L 912.5,623.0 L 912.5,624.0 L 912.0,624.5 L 911.5,625.0 L 911.5,626.0 L 911.0,626.5 L 910.5,627.0 L 910.5,628.0 L 910.0,628.5 L 909.5,629.0 L 909.5,630.0 L 909.0,630.5 L 908.5,631.0 L 908.5,632.0 L 908.0,632.5 L 907.5,633.0 L 907.5,634.0 L 907.5,635.0 L 907.0,635.5 L 906.5,636.0 L 906.5,637.0 L 906.0,637.5 L 905.5,638.0 L 905.5,639.0 L 905.0,639.5 L 904.5,640.0 L 904.0,640.5 L 903.5,641.0 L 903.5,642.0 L 903.0,642.5 L 902.5,643.0 L 902.5,644.0 L 902.0,644.5 L 901.5,645.0 L 901.5,646.0 L 901.0,646.5 L 900.5,647.0 L 900.5,648.0 L 900.0,648.5 L 899.5,649.0 L 899.0,649.5 L 898.5,650.0 L 898.5,651.0 L 898.0,651.5 L 897.5,652.0 L 897.5,653.0 L 897.0,653.5 L 896.5,654.0 L 896.0,654.5 L 895.5,655.0 L 895.5,656.0 L 895.0,656.5 L 894.5,657.0 L 894.5,658.0 L 894.0,658.5 L 893.5,659.0 L 893.0,659.5 L 892.5,660.0 L 892.5,661.0 L 892.0,661.5 L 891.5,662.0 L 891.0,662.5 L 890.5,663.0 L 890.5,664.0 L 890.0,664.5 L 889.5,665.0 L 889.0,665.5 L 888.5,666.0 L 888.0,666.5 L 887.5,667.0 L 887.5,668.0 L 887.0,668.5 L 886.5,669.0 L 886.0,669.5 L 885.5,670.0 L 885.0,670.5 L 884.5,671.0 L 884.5,672.0 L 884.0,672.5 L 883.5,673.0 L 883.0,673.5 L 882.5,674.0 L 882.0,674.5 L 881.5,675.0 L 881.5,676.0 L 881.0,676.5 L 880.5,677.0 L 880.0,677.5 L 879.5,678.0 L 879.0,678.5 L 878.5,679.0 L 878.0,679.5 L 877.5,680.0 L 877.5,681.0 L 877.0,681.5 L 876.5,682.0 L 876.0,682.5 L 875.5,683.0 L 875.0,683.5 L 874.5,684.0 L 874.0,684.5 L 873.5,685.0 L 873.0,685.5 L 872.5,686.0 L 872.5,687.0 L 872.0,687.5 L 871.5,688.0 L 871.0,688.5 L 870.5,689.0 L 870.0,689.5 L 869.5,690.0 L 869.0,690.5 L 868.5,691.0 L 868.0,691.5 L 867.5,692.0 L 867.0,692.5 L 866.5,693.0 L 866.0,693.5 L 865.5,694.0 L 865.0,694.5 L 864.5,695.0 L 864.0,695.5 L 863.5,696.0 L 863.0,696.5 L 862.5,697.0 L 862.0,697.5 L 861.5,698.0 L 861.0,698.5 L 860.5,699.0 L 860.0,699.5 L 859.5,700.0 L 859.0,700.5 L 858.5,701.0 L 858.0,701.5 L 857.5,702.0 L 857.0,702.5 L 856.5,703.0 L 856.0,703.5 L 855.5,704.0 L 855.0,704.5 L 854.5,705.0 L 854.0,705.5 L 853.0,705.5 L 852.5,706.0 L 852.0,706.5 L 851.5,707.0 L 851.0,707.5 L 850.5,708.0 L 850.0,708.5 L 849.5,709.0 L 849.0,709.5 L 848.5,710.0 L 848.0,710.5 L 847.5,711.0 L 847.0,711.5 L 846.0,711.5 L 845.5,712.0 L 845.0,712.5 L 844.5,713.0 L 844.0,713.5 L 843.5,714.0 L 843.0,714.5 L 842.5,715.0 L 842.0,715.5 L 841.0,715.5 L 840.5,716.0 L 840.0,716.5 L 839.5,717.0 L 839.0,717.5 L 838.5,718.0 L 838.0,718.5 L 837.0,718.5 L 836.5,719.0 L 836.0,719.5 L 835.5,720.0 L 835.0,720.5 L 834.5,721.0 L 834.0,721.5 L 833.0,721.5 L 832.5,722.0 L 832.0,722.5 L 831.5,723.0 L 831.0,723.5 L 830.0,723.5 L 829.5,724.0 L 829.0,724.5 L 828.5,725.0 L 829.0,725.5 L 829.5,726.0 L 830.0,726.5 L 830.5,727.0 L 830.5,728.0 L 831.0,728.5 L 831.5,729.0 L 832.0,729.5 L 832.5,730.0 L 833.0,730.5 L 833.5,731.0 L 834.0,731.5 L 834.5,732.0 L 834.5,733.0 L 835.0,733.5 L 835.5,734.0 L 836.0,734.5 L 836.5,735.0 L 837.0,735.5 L 837.5,736.0 L 838.0,736.5 L 838.5,737.0 L 839.0,737.5 L 839.5,738.0 L 840.0,738.5 L 840.5,739.0 L 841.0,739.5 L 841.5,740.0 L 841.5,741.0 L 842.0,741.5 L 842.5,742.0 L 843.0,742.5 L 843.5,743.0 L 844.0,743.5 L 844.5,744.0 L 844.5,745.0 L 845.0,745.5 L 845.5,746.0 L 846.0,746.5 L 846.5,747.0 L 847.0,747.5 L 847.5,748.0 L 848.0,748.5 L 848.5,749.0 L 849.0,749.5 L 849.5,750.0 L 849.5,751.0 L 850.0,751.5 L 850.5,752.0 L 851.0,752.5 L 851.5,753.0 L 852.0,753.5 L 852.5,754.0 L 853.0,754.5 L 853.5,755.0 L 854.0,755.5 L 854.5,756.0 L 854.5,757.0 L 855.0,757.5 L 855.5,758.0 L 856.0,758.5 L 856.5,759.0 L 857.0,759.5 L 857.5,760.0 L 858.0,760.5 L 858.5,761.0 L 859.0,761.5 L 859.5,762.0 L 859.5,763.0 L 860.0,763.5 L 860.5,764.0 L 861.0,764.5 L 861.5,765.0 L 862.0,765.5 L 862.5,766.0 L 863.0,766.5 L 863.5,767.0 L 863.5,768.0 L 864.0,768.5 L 864.5,769.0 L 865.0,769.5 L 865.5,770.0 L 866.0,770.5 L 866.5,771.0 L 867.0,771.5 L 867.5,772.0 L 868.0,772.5 L 868.5,773.0 L 868.5,774.0 L 869.0,774.5 L 869.5,775.0 L 870.0,775.5 L 870.5,776.0 L 871.0,776.5 L 871.5,777.0 L 872.0,777.5 L 872.5,778.0 L 873.0,778.5 L 873.5,779.0 L 873.5,780.0 L 874.0,780.5 L 874.5,781.0 L 875.0,781.5 L 875.5,782.0 L 876.0,782.5 L 876.5,783.0 L 877.0,783.5 L 877.5,784.0 L 878.0,784.5 L 878.5,785.0 L 878.5,786.0 L 879.0,786.5 L 879.5,787.0 L 880.0,787.5 L 880.5,788.0 L 881.0,788.5 L 881.5,789.0 L 882.0,789.5 L 882.5,790.0 L 882.5,791.0 L 883.0,791.5 L 883.5,792.0 L 884.0,792.5 L 884.5,793.0 L 885.0,793.5 L 885.5,794.0 L 886.0,794.5 L 886.5,795.0 L 886.5,796.0 L 887.0,796.5 L 887.5,797.0 L 888.0,797.5 L 888.5,798.0 L 889.0,798.5 L 889.5,799.0 L 890.0,799.5 L 890.5,800.0 L 891.0,800.5 L 891.5,801.0 L 891.5,802.0 L 892.0,802.5 L 892.5,803.0 L 893.0,803.5 L 893.5,804.0 L 894.0,804.5 L 894.5,805.0 L 895.0,805.5 L 895.5,806.0 L 896.0,806.5 L 896.5,807.0 L 896.5,808.0 L 897.0,808.5 L 897.5,809.0 L 898.0,809.5 L 898.5,810.0 L 899.0,810.5 L 899.5,811.0 L 900.0,811.5 L 900.5,812.0 L 900.5,813.0 L 901.0,813.5 L 901.5,814.0 L 902.0,814.5 L 902.5,815.0 L 903.0,815.5 L 903.5,816.0 L 904.0,816.5 L 904.5,817.0 L 905.0,817.5 L 905.5,818.0 L 905.5,819.0 L 906.0,819.5 L 906.5,820.0 L 907.0,820.5 L 907.5,821.0 L 908.0,821.5 L 908.5,822.0 L 909.0,822.5 L 909.5,823.0 L 909.5,824.0 L 910.0,824.5 L 910.5,825.0 L 911.0,825.5 L 911.5,826.0 L 912.0,826.5 L 912.5,827.0 L 913.0,827.5 L 913.5,828.0 L 913.5,829.0 L 914.0,829.5 L 914.5,830.0 L 915.0,830.5 L 915.5,831.0 L 916.0,831.5 L 916.5,832.0 L 917.0,832.5 L 917.5,833.0 L 918.0,833.5 L 918.5,834.0 L 918.5,835.0 L 919.0,835.5 L 919.5,836.0 L 920.0,836.5 L 920.5,837.0 L 921.0,837.5 L 921.5,838.0 L 922.0,838.5 L 922.5,839.0 L 922.5,840.0 L 923.0,840.5 L 923.5,841.0 L 924.0,841.5 L 924.5,842.0 L 925.0,842.5 L 925.5,843.0 L 926.0,843.5 L 926.5,844.0 L 926.5,845.0 L 927.0,845.5 L 927.5,846.0 L 928.0,846.5 L 928.5,847.0 L 929.0,847.5 L 929.5,848.0 L 930.0,848.5 L 930.5,849.0 L 931.0,849.5 L 931.5,850.0 L 931.5,851.0 L 932.0,851.5 L 932.5,852.0 L 933.0,852.5 L 933.5,853.0 L 934.0,853.5 L 934.5,854.0 L 935.0,854.5 L 935.5,855.0 L 936.0,855.5 L 936.5,856.0 L 936.5,857.0 L 937.0,857.5 L 937.5,858.0 L 938.0,858.5 L 938.5,859.0 L 939.0,859.5 L 939.5,860.0 L 940.0,860.5 L 940.5,861.0 L 940.5,862.0 L 941.0,862.5 L 941.5,863.0 L 942.0,863.5 L 942.5,864.0 L 943.0,864.5 L 943.5,865.0 L 944.0,865.5 L 944.5,866.0 L 944.5,867.0 L 945.0,867.5 L 945.5,868.0 L 946.0,868.5 L 946.5,869.0 L 947.0,869.5 L 947.5,870.0 L 948.0,870.5 L 948.5,871.0 L 949.0,871.5 L 949.5,872.0 L 949.5,873.0 L 950.0,873.5 L 950.5,874.0 L 951.0,874.5 L 951.5,875.0 L 952.0,875.5 L 952.5,876.0 L 953.0,876.5 L 953.5,877.0 L 953.5,878.0 L 954.0,878.5 L 954.5,879.0 L 955.0,879.5 L 955.5,880.0 L 956.0,880.5 L 956.5,881.0 L 957.0,881.5 L 957.5,882.0 L 957.5,883.0 L 958.0,883.5 L 958.5,884.0 L 959.0,884.5 L 959.5,885.0 L 960.0,885.5 L 960.5,886.0 L 961.0,886.5 L 961.5,887.0 L 962.0,887.5 L 962.5,888.0 L 962.5,889.0 L 963.0,889.5 L 963.5,890.0 L 964.0,890.5 L 964.5,891.0 L 965.0,891.5 L 965.5,892.0 L 966.0,892.5 L 966.5,893.0 L 967.0,893.5 L 967.5,894.0 L 967.5,895.0 L 968.0,895.5 L 968.5,896.0 L 969.0,896.5 L 969.5,897.0 L 970.0,897.5 L 970.5,898.0 L 971.0,898.5 L 971.5,899.0 L 971.5,900.0 L 972.0,900.5 L 972.5,901.0 L 973.0,901.5 L 973.5,902.0 L 974.0,902.5 L 974.5,903.0 L 975.0,903.5 L 975.5,904.0 L 976.0,904.5 L 976.5,905.0 L 976.5,906.0 L 977.0,906.5 L 977.5,907.0 L 978.0,907.5 L 978.5,908.0 L 979.0,908.5 L 979.5,909.0 L 980.0,909.5 L 980.5,910.0 L 980.5,911.0 L 981.0,911.5 L 981.5,912.0 L 982.0,912.5 L 982.5,913.0 L 983.0,913.5 L 983.5,914.0 L 984.0,914.5 L 984.5,915.0 L 985.0,915.5 L 985.5,916.0 L 985.5,917.0 L 986.0,917.5 L 986.5,918.0 L 987.0,918.5 L 987.5,919.0 L 988.0,919.5 L 988.5,920.0 L 989.0,920.5 L 989.5,921.0 L 989.5,922.0 L 990.0,922.5 L 990.5,923.0 L 991.0,923.5 L 991.5,924.0 L 992.0,924.5 L 992.5,925.0 L 993.0,925.5 L 993.5,926.0 L 993.5,927.0 L 994.0,927.5 L 994.5,928.0 L 995.0,928.5 L 995.5,929.0 L 996.0,929.5 L 996.5,930.0 L 997.0,930.5 L 997.5,931.0 L 998.0,931.5 L 998.5,932.0 L 998.5,933.0 L 999.0,933.5 L 999.5,934.0 L 1000.0,934.5 L 1000.5,935.0 L 1001.0,935.5 L 1001.5,936.0 L 1002.0,936.5 L 1002.5,937.0 L 1002.5,938.0 L 1003.0,938.5 L 1003.5,939.0 L 1004.0,939.5 L 1004.5,940.0 L 1005.0,940.5 L 1005.5,941.0 L 1006.0,941.5 L 1006.5,942.0 L 1006.5,943.0 L 1007.0,943.5 L 1007.5,944.0 L 1008.0,944.5 L 1008.5,945.0 L 1009.0,945.5 L 1009.5,946.0 L 1010.0,946.5 L 1010.5,947.0 L 1011.0,947.5 L 1011.5,948.0 L 1011.5,949.0 L 1012.0,949.5 L 1012.5,950.0 L 1013.0,950.5 L 1013.5,951.0 L 1014.0,951.5 L 1014.5,952.0 L 1015.0,952.5 L 1015.5,953.0 L 1015.5,954.0 L 1015.0,954.5 Z" fill="#ff7a00" fill-rule="evenodd" stroke="none" /><path d="M 479.0,761.5 L 478.0,761.5 L 477.5,761.0 L 477.5,760.0 L 477.5,759.0 L 477.5,758.0 L 477.5,757.0 L 477.5,756.0 L 477.0,755.5 L 476.5,755.0 L 476.5,754.0 L 476.5,753.0 L 476.5,752.0 L 476.5,751.0 L 476.5,750.0 L 476.5,749.0 L 476.5,748.0 L 476.5,747.0 L 476.5,746.0 L 476.5,745.0 L 476.5,744.0 L 476.5,743.0 L 476.5,742.0 L 476.5,741.0 L 476.5,740.0 L 476.0,739.5 L 475.5,739.0 L 475.5,738.0 L 475.5,737.0 L 475.5,736.0 L 475.5,735.0 L 475.5,734.0 L 475.5,733.0 L 475.5,732.0 L 475.5,731.0 L 475.5,730.0 L 475.5,729.0 L 475.5,728.0 L 475.5,727.0 L 475.0,726.5 L 474.5,726.0 L 474.5,725.0 L 474.5,724.0 L 474.5,723.0 L 474.5,722.0 L 474.5,721.0 L 474.5,720.0 L 474.5,719.0 L 474.5,718.0 L 474.0,717.5 L 473.5,717.0 L 473.5,716.0 L 473.5,715.0 L 473.5,714.0 L 473.5,713.0 L 473.5,712.0 L 473.5,711.0 L 473.0,710.5 L 472.5,710.0 L 472.5,709.0 L 472.5,708.0 L 472.5,707.0 L 472.5,706.0 L 472.5,705.0 L 472.0,704.5 L 471.5,704.0 L 471.5,703.0 L 471.5,702.0 L 471.5,701.0 L 471.5,700.0 L 471.0,699.5 L 470.5,699.0 L 470.5,698.0 L 470.5,697.0 L 470.5,696.0 L 470.0,695.5 L 469.5,695.0 L 469.5,694.0 L 469.5,693.0 L 469.5,692.0 L 469.0,691.5 L 468.5,691.0 L 468.5,690.0 L 468.5,689.0 L 468.0,688.5 L 467.5,688.0 L 467.5,687.0 L 467.5,686.0 L 467.0,685.5 L 466.5,685.0 L 466.5,684.0 L 466.0,683.5 L 465.5,683.0 L 465.5,682.0 L 465.0,681.5 L 464.5,681.0 L 464.5,680.0 L 464.5,679.0 L 464.0,678.5 L 463.5,678.0 L 463.5,677.0 L 463.0,676.5 L 462.5,676.0 L 462.5,675.0 L 462.0,674.5 L 461.5,674.0 L 461.5,673.0 L 461.0,672.5 L 460.5,672.0 L 460.0,671.5 L 459.5,671.0 L 459.5,670.0 L 459.0,669.5 L 458.5,669.0 L 458.0,668.5 L 457.5,668.0 L 457.5,667.0 L 457.0,666.5 L 456.5,666.0 L 456.0,665.5 L 455.5,665.0 L 455.5,664.0 L 455.0,663.5 L 454.5,663.0 L 454.0,662.5 L 453.5,662.0 L 453.0,661.5 L 452.5,661.0 L 452.0,660.5 L 451.5,660.0 L 451.0,659.5 L 450.5,659.0 L 450.0,658.5 L 449.5,658.0 L 449.5,657.0 L 449.0,656.5 L 448.5,656.0 L 448.0,655.5 L 447.5,655.0 L 447.0,654.5 L 446.5,654.0 L 446.0,653.5 L 445.5,653.0 L 445.0,652.5 L 444.0,652.5 L 443.5,652.0 L 443.0,651.5 L 442.5,651.0 L 442.0,650.5 L 441.5,650.0 L 441.0,649.5 L 440.0,649.5 L 439.5,649.0 L 439.0,648.5 L 438.5,648.0 L 438.0,647.5 L 437.0,647.5 L 436.5,647.0 L 436.0,646.5 L 435.5,646.0 L 435.0,645.5 L 434.0,645.5 L 433.5,645.0 L 433.0,644.5 L 432.0,644.5 L 431.5,644.0 L 431.0,643.5 L 430.0,643.5 L 429.5,643.0 L 429.0,642.5 L 428.0,642.5 L 427.5,642.0 L 427.0,641.5 L 426.5,641.0 L 426.0,640.5 L 425.0,640.5 L 424.0,640.5 L 423.5,640.0 L 423.0,639.5 L 422.0,639.5 L 421.5,639.0 L 421.0,638.5 L 420.0,638.5 L 419.0,638.5 L 418.5,638.0 L 418.0,637.5 L 417.0,637.5 L 416.0,637.5 L 415.5,637.0 L 415.0,636.5 L 414.0,636.5 L 413.0,636.5 L 412.5,636.0 L 412.0,635.5 L 411.0,635.5 L 410.0,635.5 L 409.0,635.5 L 408.5,635.0 L 408.0,634.5 L 407.0,634.5 L 406.0,634.5 L 405.0,634.5 L 404.0,634.5 L 403.5,634.0 L 403.0,633.5 L 402.0,633.5 L 401.0,633.5 L 400.0,633.5 L 399.0,633.5 L 398.0,633.5 L 397.5,633.0 L 397.0,632.5 L 396.0,632.5 L 395.0,632.5 L 394.0,632.5 L 393.0,632.5 L 392.0,632.5 L 391.0,632.5 L 390.0,632.5 L 389.5,632.0 L 389.0,631.5 L 388.0,631.5 L 387.0,631.5 L 386.0,631.5 L 385.0,631.5 L 384.0,631.5 L 383.0,631.5 L 382.0,631.5 L 381.0,631.5 L 380.5,631.0 L 380.0,630.5 L 379.0,630.5 L 378.0,630.5 L 377.0,630.5 L 376.0,630.5 L 375.0,630.5 L 374.0,630.5 L 373.0,630.5 L 372.0,630.5 L 371.0,630.5 L 370.0,630.5 L 369.0,630.5 L 368.0,630.5 L 367.0,630.5 L 366.0,630.5 L 365.5,630.0 L 365.0,629.5 L 364.0,629.5 L 363.0,629.5 L 362.0,629.5 L 361.0,629.5 L 360.0,629.5 L 359.0,629.5 L 358.0,629.5 L 357.0,629.5 L 356.0,629.5 L 355.0,629.5 L 354.0,629.5 L 353.0,629.5 L 352.0,629.5 L 351.0,629.5 L 350.0,629.5 L 349.0,629.5 L 348.5,629.0 L 348.0,628.5 L 347.0,628.5 L 346.0,628.5 L 345.0,628.5 L 344.0,628.5 L 343.0,628.5 L 342.0,628.5 L 341.0,628.5 L 340.0,628.5 L 339.0,628.5 L 338.0,628.5 L 337.0,628.5 L 336.0,628.5 L 335.0,628.5 L 334.0,628.5 L 333.0,628.5 L 332.5,628.0 L 332.5,627.0 L 333.0,626.5 L 334.0,626.5 L 335.0,626.5 L 336.0,626.5 L 337.0,626.5 L 338.0,626.5 L 339.0,626.5 L 340.0,626.5 L 341.0,626.5 L 342.0,626.5 L 343.0,626.5 L 344.0,626.5 L 345.0,626.5 L 346.0,626.5 L 347.0,626.5 L 347.5,626.0 L 348.0,625.5 L 349.0,625.5 L 350.0,625.5 L 351.0,625.5 L 352.0,625.5 L 353.0,625.5 L 354.0,625.5 L 355.0,625.5 L 356.0,625.5 L 357.0,625.5 L 358.0,625.5 L 359.0,625.5 L 360.0,625.5 L 361.0,625.5 L 362.0,625.5 L 363.0,625.5 L 364.0,625.5 L 365.0,625.5 L 365.5,625.0 L 366.0,624.5 L 367.0,624.5 L 368.0,624.5 L 369.0,624.5 L 370.0,624.5 L 371.0,624.5 L 372.0,624.5 L 373.0,624.5 L 374.0,624.5 L 375.0,624.5 L 376.0,624.5 L 377.0,624.5 L 377.5,624.0 L 378.0,623.5 L 379.0,623.5 L 380.0,623.5 L 381.0,623.5 L 382.0,623.5 L 383.0,623.5 L 384.0,623.5 L 385.0,623.5 L 386.0,623.5 L 387.0,623.5 L 388.0,623.5 L 388.5,623.0 L 389.0,622.5 L 390.0,622.5 L 391.0,622.5 L 392.0,622.5 L 393.0,622.5 L 394.0,622.5 L 395.0,622.5 L 396.0,622.5 L 396.5,622.0 L 397.0,621.5 L 398.0,621.5 L 399.0,621.5 L 400.0,621.5 L 401.0,621.5 L 401.5,621.0 L 402.0,620.5 L 403.0,620.5 L 404.0,620.5 L 405.0,620.5 L 406.0,620.5 L 406.5,620.0 L 407.0,619.5 L 408.0,619.5 L 409.0,619.5 L 410.0,619.5 L 411.0,619.5 L 411.5,619.0 L 412.0,618.5 L 413.0,618.5 L 414.0,618.5 L 414.5,618.0 L 415.0,617.5 L 416.0,617.5 L 417.0,617.5 L 417.5,617.0 L 418.0,616.5 L 419.0,616.5 L 420.0,616.5 L 420.5,616.0 L 421.0,615.5 L 422.0,615.5 L 422.5,615.0 L 423.0,614.5 L 424.0,614.5 L 424.5,614.0 L 425.0,613.5 L 426.0,613.5 L 427.0,613.5 L 427.5,613.0 L 428.0,612.5 L 429.0,612.5 L 429.5,612.0 L 430.0,611.5 L 431.0,611.5 L 431.5,611.0 L 432.0,610.5 L 432.5,610.0 L 433.0,609.5 L 434.0,609.5 L 434.5,609.0 L 435.0,608.5 L 436.0,608.5 L 436.5,608.0 L 437.0,607.5 L 437.5,607.0 L 438.0,606.5 L 439.0,606.5 L 439.5,606.0 L 440.0,605.5 L 440.5,605.0 L 441.0,604.5 L 441.5,604.0 L 442.0,603.5 L 442.5,603.0 L 443.0,602.5 L 444.0,602.5 L 444.5,602.0 L 445.0,601.5 L 445.5,601.0 L 446.0,600.5 L 446.5,600.0 L 447.0,599.5 L 447.5,599.0 L 448.0,598.5 L 448.5,598.0 L 449.0,597.5 L 449.5,597.0 L 450.0,596.5 L 450.5,596.0 L 451.0,595.5 L 451.5,595.0 L 452.0,594.5 L 452.5,594.0 L 453.0,593.5 L 453.5,593.0 L 453.5,592.0 L 454.0,591.5 L 454.5,591.0 L 455.0,590.5 L 455.5,590.0 L 456.0,589.5 L 456.5,589.0 L 456.5,588.0 L 457.0,587.5 L 457.5,587.0 L 458.0,586.5 L 458.5,586.0 L 458.5,585.0 L 459.0,584.5 L 459.5,584.0 L 460.0,583.5 L 460.5,583.0 L 460.5,582.0 L 461.0,581.5 L 461.5,581.0 L 462.0,580.5 L 462.5,580.0 L 462.5,579.0 L 463.0,578.5 L 463.5,578.0 L 463.5,577.0 L 464.0,576.5 L 464.5,576.0 L 464.5,575.0 L 465.0,574.5 L 465.5,574.0 L 465.5,573.0 L 465.5,572.0 L 466.0,571.5 L 466.5,571.0 L 466.5,570.0 L 467.0,569.5 L 467.5,569.0 L 467.5,568.0 L 467.5,567.0 L 468.0,566.5 L 468.5,566.0 L 468.5,565.0 L 468.5,564.0 L 469.0,563.5 L 469.5,563.0 L 469.5,562.0 L 469.5,561.0 L 469.5,560.0 L 470.0,559.5 L 470.5,559.0 L 470.5,558.0 L 470.5,557.0 L 471.0,556.5 L 471.5,556.0 L 471.5,555.0 L 471.5,554.0 L 471.5,553.0 L 471.5,552.0 L 472.0,551.5 L 472.5,551.0 L 472.5,550.0 L 472.5,549.0 L 472.5,548.0 L 472.5,547.0 L 472.5,546.0 L 473.0,545.5 L 473.5,545.0 L 473.5,544.0 L 473.5,543.0 L 473.5,542.0 L 473.5,541.0 L 473.5,540.0 L 474.0,539.5 L 474.5,539.0 L 474.5,538.0 L 474.5,537.0 L 474.5,536.0 L 474.5,535.0 L 474.5,534.0 L 474.5,533.0 L 475.0,532.5 L 475.5,532.0 L 475.5,531.0 L 475.5,530.0 L 475.5,529.0 L 475.5,528.0 L 475.5,527.0 L 475.5,526.0 L 475.5,525.0 L 475.5,524.0 L 475.5,523.0 L 476.0,522.5 L 476.5,522.0 L 476.5,521.0 L 476.5,520.0 L 476.5,519.0 L 476.5,518.0 L 476.5,517.0 L 476.5,516.0 L 476.5,515.0 L 476.5,514.0 L 476.5,513.0 L 476.5,512.0 L 476.5,511.0 L 476.5,510.0 L 477.0,509.5 L 477.5,509.0 L 477.5,508.0 L 477.5,507.0 L 477.5,506.0 L 477.5,505.0 L 478.0,504.5 L 478.5,505.0 L 479.0,505.5 L 479.5,506.0 L 479.5,507.0 L 479.5,508.0 L 479.5,509.0 L 479.5,510.0 L 479.5,511.0 L 479.5,512.0 L 479.5,513.0 L 479.5,514.0 L 479.5,515.0 L 479.5,516.0 L 479.5,517.0 L 479.5,518.0 L 479.5,519.0 L 479.5,520.0 L 479.5,521.0 L 480.0,521.5 L 480.5,522.0 L 480.5,523.0 L 480.5,524.0 L 480.5,525.0 L 480.5,526.0 L 480.5,527.0 L 480.5,528.0 L 480.5,529.0 L 480.5,530.0 L 480.5,531.0 L 480.5,532.0 L 481.0,532.5 L 481.5,533.0 L 481.5,534.0 L 481.5,535.0 L 481.5,536.0 L 481.5,537.0 L 481.5,538.0 L 482.0,538.5 L 482.5,539.0 L 482.5,540.0 L 482.5,541.0 L 482.5,542.0 L 482.5,543.0 L 482.5,544.0 L 482.5,545.0 L 483.0,545.5 L 483.5,546.0 L 483.5,547.0 L 483.5,548.0 L 483.5,549.0 L 483.5,550.0 L 483.5,551.0 L 484.0,551.5 L 484.5,552.0 L 484.5,553.0 L 484.5,554.0 L 484.5,555.0 L 485.0,555.5 L 485.5,556.0 L 485.5,557.0 L 485.5,558.0 L 485.5,559.0 L 486.0,559.5 L 486.5,560.0 L 486.5,561.0 L 486.5,562.0 L 486.5,563.0 L 487.0,563.5 L 487.5,564.0 L 487.5,565.0 L 487.5,566.0 L 488.0,566.5 L 488.5,567.0 L 488.5,568.0 L 488.5,569.0 L 489.0,569.5 L 489.5,570.0 L 489.5,571.0 L 490.0,571.5 L 490.5,572.0 L 490.5,573.0 L 490.5,574.0 L 491.0,574.5 L 491.5,575.0 L 491.5,576.0 L 492.0,576.5 L 492.5,577.0 L 492.5,578.0 L 493.0,578.5 L 493.5,579.0 L 493.5,580.0 L 494.0,580.5 L 494.5,581.0 L 494.5,582.0 L 495.0,582.5 L 495.5,583.0 L 496.0,583.5 L 496.5,584.0 L 496.5,585.0 L 497.0,585.5 L 497.5,586.0 L 497.5,587.0 L 498.0,587.5 L 498.5,588.0 L 499.0,588.5 L 499.5,589.0 L 500.0,589.5 L 500.5,590.0 L 501.0,590.5 L 501.5,591.0 L 501.5,592.0 L 502.0,592.5 L 502.5,593.0 L 503.0,593.5 L 503.5,594.0 L 504.0,594.5 L 504.5,595.0 L 505.0,595.5 L 505.5,596.0 L 506.0,596.5 L 506.5,597.0 L 507.0,597.5 L 507.5,598.0 L 508.0,598.5 L 508.5,599.0 L 509.0,599.5 L 509.5,600.0 L 510.0,600.5 L 510.5,601.0 L 511.0,601.5 L 511.5,602.0 L 512.0,602.5 L 512.5,603.0 L 513.0,603.5 L 514.0,603.5 L 514.5,604.0 L 515.0,604.5 L 515.5,605.0 L 516.0,605.5 L 516.5,606.0 L 517.0,606.5 L 518.0,606.5 L 518.5,607.0 L 519.0,607.5 L 519.5,608.0 L 520.0,608.5 L 521.0,608.5 L 521.5,609.0 L 522.0,609.5 L 522.5,610.0 L 523.0,610.5 L 524.0,610.5 L 524.5,611.0 L 525.0,611.5 L 526.0,611.5 L 526.5,612.0 L 527.0,612.5 L 528.0,612.5 L 528.5,613.0 L 529.0,613.5 L 530.0,613.5 L 530.5,614.0 L 531.0,614.5 L 532.0,614.5 L 532.5,615.0 L 533.0,615.5 L 534.0,615.5 L 534.5,616.0 L 535.0,616.5 L 536.0,616.5 L 537.0,616.5 L 537.5,617.0 L 538.0,617.5 L 539.0,617.5 L 540.0,617.5 L 540.5,618.0 L 541.0,618.5 L 542.0,618.5 L 543.0,618.5 L 543.5,619.0 L 544.0,619.5 L 545.0,619.5 L 546.0,619.5 L 547.0,619.5 L 547.5,620.0 L 548.0,620.5 L 549.0,620.5 L 550.0,620.5 L 550.5,621.0 L 551.0,621.5 L 552.0,621.5 L 553.0,621.5 L 554.0,621.5 L 554.5,622.0 L 555.0,622.5 L 556.0,622.5 L 557.0,622.5 L 558.0,622.5 L 559.0,622.5 L 559.5,623.0 L 560.0,623.5 L 561.0,623.5 L 562.0,623.5 L 563.0,623.5 L 564.0,623.5 L 565.0,623.5 L 565.5,624.0 L 566.0,624.5 L 567.0,624.5 L 568.0,624.5 L 569.0,624.5 L 570.0,624.5 L 571.0,624.5 L 572.0,624.5 L 573.0,624.5 L 574.0,624.5 L 575.0,624.5 L 575.5,625.0 L 576.0,625.5 L 577.0,625.5 L 578.0,625.5 L 579.0,625.5 L 580.0,625.5 L 581.0,625.5 L 582.0,625.5 L 583.0,625.5 L 584.0,625.5 L 585.0,625.5 L 586.0,625.5 L 586.5,626.0 L 587.0,626.5 L 588.0,626.5 L 589.0,626.5 L 590.0,626.5 L 591.0,626.5 L 592.0,626.5 L 593.0,626.5 L 593.5,627.0 L 593.5,628.0 L 593.0,628.5 L 592.0,628.5 L 591.0,628.5 L 590.0,628.5 L 589.0,628.5 L 588.0,628.5 L 587.0,628.5 L 586.0,628.5 L 585.0,628.5 L 584.5,629.0 L 584.0,629.5 L 583.0,629.5 L 582.0,629.5 L 581.0,629.5 L 580.0,629.5 L 579.0,629.5 L 578.0,629.5 L 577.0,629.5 L 576.0,629.5 L 575.0,629.5 L 574.0,629.5 L 573.0,629.5 L 572.5,630.0 L 572.0,630.5 L 571.0,630.5 L 570.0,630.5 L 569.0,630.5 L 568.0,630.5 L 567.0,630.5 L 566.0,630.5 L 565.0,630.5 L 564.5,631.0 L 564.0,631.5 L 563.0,631.5 L 562.0,631.5 L 561.0,631.5 L 560.0,631.5 L 559.0,631.5 L 558.5,632.0 L 558.0,632.5 L 557.0,632.5 L 556.0,632.5 L 555.0,632.5 L 554.0,632.5 L 553.5,633.0 L 553.0,633.5 L 552.0,633.5 L 551.0,633.5 L 550.0,633.5 L 549.5,634.0 L 549.0,634.5 L 548.0,634.5 L 547.0,634.5 L 546.0,634.5 L 545.5,635.0 L 545.0,635.5 L 544.0,635.5 L 543.0,635.5 L 542.5,636.0 L 542.0,636.5 L 541.0,636.5 L 540.0,636.5 L 539.5,637.0 L 539.0,637.5 L 538.0,637.5 L 537.0,637.5 L 536.5,638.0 L 536.0,638.5 L 535.0,638.5 L 534.0,638.5 L 533.5,639.0 L 533.0,639.5 L 532.0,639.5 L 531.5,640.0 L 531.0,640.5 L 530.0,640.5 L 529.5,641.0 L 529.0,641.5 L 528.0,641.5 L 527.5,642.0 L 527.0,642.5 L 526.0,642.5 L 525.5,643.0 L 525.0,643.5 L 524.0,643.5 L 523.5,644.0 L 523.0,644.5 L 522.0,644.5 L 521.5,645.0 L 521.0,645.5 L 520.5,646.0 L 520.0,646.5 L 519.0,646.5 L 518.5,647.0 L 518.0,647.5 L 517.5,648.0 L 517.0,648.5 L 516.0,648.5 L 515.5,649.0 L 515.0,649.5 L 514.5,650.0 L 514.0,650.5 L 513.5,651.0 L 513.0,651.5 L 512.5,652.0 L 512.0,652.5 L 511.5,653.0 L 511.0,653.5 L 510.0,653.5 L 509.5,654.0 L 509.0,654.5 L 508.5,655.0 L 508.0,655.5 L 507.5,656.0 L 507.0,656.5 L 506.5,657.0 L 506.0,657.5 L 505.5,658.0 L 505.0,658.5 L 504.5,659.0 L 504.5,660.0 L 504.0,660.5 L 503.5,661.0 L 503.0,661.5 L 502.5,662.0 L 502.0,662.5 L 501.5,663.0 L 501.0,663.5 L 500.5,664.0 L 500.0,664.5 L 499.5,665.0 L 499.5,666.0 L 499.0,666.5 L 498.5,667.0 L 498.0,667.5 L 497.5,668.0 L 497.5,669.0 L 497.0,669.5 L 496.5,670.0 L 496.5,671.0 L 496.0,671.5 L 495.5,672.0 L 495.0,672.5 L 494.5,673.0 L 494.5,674.0 L 494.0,674.5 L 493.5,675.0 L 493.5,676.0 L 493.0,676.5 L 492.5,677.0 L 492.5,678.0 L 492.0,678.5 L 491.5,679.0 L 491.5,680.0 L 491.0,680.5 L 490.5,681.0 L 490.5,682.0 L 490.5,683.0 L 490.0,683.5 L 489.5,684.0 L 489.5,685.0 L 489.0,685.5 L 488.5,686.0 L 488.5,687.0 L 488.5,688.0 L 488.0,688.5 L 487.5,689.0 L 487.5,690.0 L 487.5,691.0 L 487.0,691.5 L 486.5,692.0 L 486.5,693.0 L 486.5,694.0 L 486.5,695.0 L 486.0,695.5 L 485.5,696.0 L 485.5,697.0 L 485.5,698.0 L 485.5,699.0 L 485.0,699.5 L 484.5,700.0 L 484.5,701.0 L 484.5,702.0 L 484.5,703.0 L 484.5,704.0 L 484.0,704.5 L 483.5,705.0 L 483.5,706.0 L 483.5,707.0 L 483.5,708.0 L 483.5,709.0 L 483.5,710.0 L 483.0,710.5 L 482.5,711.0 L 482.5,712.0 L 482.5,713.0 L 482.5,714.0 L 482.5,715.0 L 482.5,716.0 L 482.5,717.0 L 482.5,718.0 L 482.0,718.5 L 481.5,719.0 L 481.5,720.0 L 481.5,721.0 L 481.5,722.0 L 481.5,723.0 L 481.5,724.0 L 481.5,725.0 L 481.5,726.0 L 481.5,727.0 L 481.5,728.0 L 481.0,728.5 L 480.5,729.0 L 480.5,730.0 L 480.5,731.0 L 480.5,732.0 L 480.5,733.0 L 480.5,734.0 L 480.5,735.0 L 480.5,736.0 L 480.5,737.0 L 480.5,738.0 L 480.5,739.0 L 480.5,740.0 L 480.0,740.5 L 479.5,741.0 L 479.5,742.0 L 479.5,743.0 L 479.5,744.0 L 479.5,745.0 L 479.5,746.0 L 479.5,747.0 L 479.5,748.0 L 479.5,749.0 L 479.5,750.0 L 479.5,751.0 L 479.5,752.0 L 479.5,753.0 L 479.5,754.0 L 479.5,755.0 L 479.5,756.0 L 479.5,757.0 L 479.5,758.0 L 479.5,759.0 L 479.5,760.0 L 479.5,761.0 L 479.0,761.5 Z" fill="#ff7a00" fill-rule="evenodd" stroke="none" /><path d="M 756.0,954.5 L 755.0,954.5 L 754.0,954.5 L 753.0,954.5 L 752.0,954.5 L 751.0,954.5 L 750.0,954.5 L 749.0,954.5 L 748.0,954.5 L 747.0,954.5 L 746.0,954.5 L 745.0,954.5 L 744.0,954.5 L 743.0,954.5 L 742.0,954.5 L 741.0,954.5 L 740.0,954.5 L 739.0,954.5 L 738.0,954.5 L 737.0,954.5 L 736.0,954.5 L 735.0,954.5 L 734.0,954.5 L 733.0,954.5 L 732.0,954.5 L 731.0,954.5 L 730.0,954.5 L 729.0,954.5 L 728.0,954.5 L 727.0,954.5 L 726.0,954.5 L 725.0,954.5 L 724.0,954.5 L 723.0,954.5 L 722.0,954.5 L 721.0,954.5 L 720.0,954.5 L 719.0,954.5 L 718.0,954.5 L 717.0,954.5 L 716.0,954.5 L 715.0,954.5 L 714.0,954.5 L 713.0,954.5 L 712.0,954.5 L 711.0,954.5 L 710.0,954.5 L 709.0,954.5 L 708.0,954.5 L 707.0,954.5 L 706.0,954.5 L 705.0,954.5 L 704.0,954.5 L 703.0,954.5 L 702.0,954.5 L 701.0,954.5 L 700.0,954.5 L 699.0,954.5 L 698.0,954.5 L 697.0,954.5 L 696.0,954.5 L 695.0,954.5 L 694.0,954.5 L 693.0,954.5 L 692.0,954.5 L 691.0,954.5 L 690.0,954.5 L 689.0,954.5 L 688.0,954.5 L 687.0,954.5 L 686.0,954.5 L 685.0,954.5 L 684.0,954.5 L 683.0,954.5 L 682.0,954.5 L 681.0,954.5 L 680.0,954.5 L 679.0,954.5 L 678.0,954.5 L 677.0,954.5 L 676.0,954.5 L 675.0,954.5 L 674.0,954.5 L 673.0,954.5 L 672.0,954.5 L 671.0,954.5 L 670.0,954.5 L 669.0,954.5 L 668.0,954.5 L 667.0,954.5 L 666.0,954.5 L 665.0,954.5 L 664.0,954.5 L 663.0,954.5 L 662.0,954.5 L 661.0,954.5 L 660.0,954.5 L 659.0,954.5 L 658.0,954.5 L 657.0,954.5 L 656.0,954.5 L 655.0,954.5 L 654.0,954.5 L 653.0,954.5 L 652.0,954.5 L 651.0,954.5 L 650.0,954.5 L 649.0,954.5 L 648.0,954.5 L 647.0,954.5 L 646.0,954.5 L 645.0,954.5 L 644.0,954.5 L 643.0,954.5 L 642.0,954.5 L 641.0,954.5 L 640.0,954.5 L 639.0,954.5 L 638.0,954.5 L 637.0,954.5 L 636.0,954.5 L 635.0,954.5 L 634.0,954.5 L 633.0,954.5 L 632.0,954.5 L 631.0,954.5 L 630.0,954.5 L 629.0,954.5 L 628.0,954.5 L 627.0,954.5 L 626.0,954.5 L 625.0,954.5 L 624.0,954.5 L 623.0,954.5 L 622.0,954.5 L 621.0,954.5 L 620.5,954.0 L 620.0,953.5 L 619.0,953.5 L 618.0,953.5 L 617.0,953.5 L 616.5,953.0 L 616.0,952.5 L 615.0,952.5 L 614.5,952.0 L 614.0,951.5 L 613.0,951.5 L 612.5,951.0 L 612.0,950.5 L 611.5,950.0 L 611.0,949.5 L 610.5,949.0 L 610.0,948.5 L 609.5,948.0 L 609.0,947.5 L 608.5,947.0 L 608.0,946.5 L 607.5,946.0 L 607.5,945.0 L 607.0,944.5 L 606.5,944.0 L 606.0,943.5 L 605.5,943.0 L 605.0,942.5 L 604.5,942.0 L 604.0,941.5 L 603.5,941.0 L 603.0,940.5 L 602.5,940.0 L 602.5,939.0 L 602.0,938.5 L 601.5,938.0 L 601.0,937.5 L 600.5,937.0 L 600.0,936.5 L 599.5,936.0 L 599.0,935.5 L 598.5,935.0 L 598.5,934.0 L 598.0,933.5 L 597.5,933.0 L 597.0,932.5 L 596.5,932.0 L 596.0,931.5 L 595.5,931.0 L 595.0,930.5 L 594.5,930.0 L 594.0,929.5 L 593.5,929.0 L 593.5,928.0 L 593.0,927.5 L 592.5,927.0 L 592.0,926.5 L 591.5,926.0 L 591.0,925.5 L 590.5,925.0 L 590.0,924.5 L 589.5,924.0 L 589.0,923.5 L 588.5,923.0 L 588.5,922.0 L 588.0,921.5 L 587.5,921.0 L 587.0,920.5 L 586.5,920.0 L 586.0,919.5 L 585.5,919.0 L 585.0,918.5 L 584.5,918.0 L 584.5,917.0 L 584.0,916.5 L 583.5,916.0 L 583.0,915.5 L 582.5,915.0 L 582.0,914.5 L 581.5,914.0 L 581.0,913.5 L 580.5,913.0 L 580.0,912.5 L 579.5,912.0 L 579.5,911.0 L 579.0,910.5 L 578.5,910.0 L 578.0,909.5 L 577.5,909.0 L 577.0,908.5 L 576.5,908.0 L 576.0,907.5 L 575.5,907.0 L 575.0,906.5 L 574.5,906.0 L 574.5,905.0 L 574.0,904.5 L 573.5,904.0 L 573.0,903.5 L 572.5,903.0 L 572.0,902.5 L 571.5,902.0 L 571.0,901.5 L 570.5,901.0 L 570.0,900.5 L 569.5,900.0 L 569.5,899.0 L 569.0,898.5 L 568.5,898.0 L 568.0,897.5 L 567.5,897.0 L 567.0,896.5 L 566.5,896.0 L 566.0,895.5 L 565.5,895.0 L 565.5,894.0 L 565.0,893.5 L 564.5,893.0 L 564.0,892.5 L 563.5,892.0 L 563.0,891.5 L 562.5,891.0 L 562.0,890.5 L 561.5,890.0 L 561.0,889.5 L 560.5,889.0 L 560.5,888.0 L 560.0,887.5 L 559.5,887.0 L 559.0,886.5 L 558.5,886.0 L 558.0,885.5 L 557.5,885.0 L 557.0,884.5 L 556.5,884.0 L 556.0,883.5 L 555.5,883.0 L 555.5,882.0 L 555.0,881.5 L 554.5,881.0 L 554.0,880.5 L 553.5,880.0 L 553.0,879.5 L 552.5,879.0 L 552.0,878.5 L 551.5,878.0 L 551.5,877.0 L 551.0,876.5 L 550.5,876.0 L 550.0,875.5 L 549.5,875.0 L 549.0,874.5 L 548.5,874.0 L 548.0,873.5 L 547.5,873.0 L 547.0,872.5 L 546.5,872.0 L 546.0,871.5 L 545.5,871.0 L 545.5,870.0 L 545.0,869.5 L 544.5,869.0 L 544.0,868.5 L 543.5,868.0 L 543.0,867.5 L 542.5,867.0 L 542.0,866.5 L 541.5,866.0 L 541.5,865.0 L 541.0,864.5 L 540.5,864.0 L 540.0,863.5 L 539.5,863.0 L 539.0,862.5 L 538.5,862.0 L 538.0,861.5 L 537.5,861.0 L 537.0,860.5 L 536.5,860.0 L 536.5,859.0 L 536.0,858.5 L 535.5,858.0 L 535.0,857.5 L 534.5,857.0 L 534.0,856.5 L 533.5,856.0 L 533.0,855.5 L 532.5,855.0 L 532.0,854.5 L 531.5,854.0 L 531.5,853.0 L 531.0,852.5 L 530.5,852.0 L 530.0,851.5 L 529.5,851.0 L 529.0,850.5 L 528.5,850.0 L 528.0,849.5 L 527.5,849.0 L 527.0,848.5 L 526.5,848.0 L 526.5,847.0 L 526.0,846.5 L 525.5,846.0 L 525.0,845.5 L 524.5,845.0 L 524.0,844.5 L 523.5,844.0 L 523.0,843.5 L 522.5,843.0 L 522.0,842.5 L 521.5,842.0 L 521.5,841.0 L 521.0,840.5 L 520.5,840.0 L 520.0,839.5 L 519.5,839.0 L 519.0,838.5 L 518.5,838.0 L 518.0,837.5 L 517.5,837.0 L 517.5,836.0 L 517.0,835.5 L 516.5,835.0 L 516.0,834.5 L 515.5,834.0 L 515.0,833.5 L 514.5,833.0 L 514.0,832.5 L 513.5,832.0 L 513.0,831.5 L 512.5,831.0 L 512.0,830.5 L 511.5,830.0 L 511.5,829.0 L 511.0,828.5 L 510.5,828.0 L 510.0,827.5 L 509.5,827.0 L 509.0,826.5 L 508.5,826.0 L 508.0,825.5 L 507.5,825.0 L 507.0,824.5 L 506.5,824.0 L 506.5,823.0 L 506.0,822.5 L 505.5,822.0 L 505.0,821.5 L 504.5,821.0 L 504.5,820.0 L 504.0,819.5 L 503.5,819.0 L 503.0,818.5 L 502.5,818.0 L 502.5,817.0 L 502.0,816.5 L 501.5,816.0 L 501.0,815.5 L 500.5,815.0 L 500.5,814.0 L 500.0,813.5 L 499.5,813.0 L 499.5,812.0 L 499.0,811.5 L 498.5,811.0 L 498.0,810.5 L 497.5,810.0 L 497.5,809.0 L 497.0,808.5 L 496.5,808.0 L 496.5,807.0 L 496.0,806.5 L 495.5,806.0 L 495.5,805.0 L 495.5,804.0 L 495.0,803.5 L 494.5,803.0 L 494.5,802.0 L 494.0,801.5 L 493.5,801.0 L 493.5,800.0 L 493.5,799.0 L 493.0,798.5 L 492.5,798.0 L 492.5,797.0 L 492.5,796.0 L 492.0,795.5 L 491.5,795.0 L 491.5,794.0 L 491.5,793.0 L 491.0,792.5 L 490.5,792.0 L 490.5,791.0 L 490.5,790.0 L 490.5,789.0 L 490.5,788.0 L 490.5,787.0 L 490.0,786.5 L 489.5,786.0 L 489.5,785.0 L 489.5,784.0 L 489.5,783.0 L 489.5,782.0 L 489.5,781.0 L 489.5,780.0 L 489.5,779.0 L 489.5,778.0 L 489.5,777.0 L 489.5,776.0 L 489.5,775.0 L 489.5,774.0 L 489.5,773.0 L 489.5,772.0 L 490.0,771.5 L 490.5,771.0 L 490.5,770.0 L 490.5,769.0 L 490.5,768.0 L 490.5,767.0 L 490.5,766.0 L 490.5,765.0 L 490.5,764.0 L 491.0,763.5 L 491.5,763.0 L 491.5,762.0 L 491.5,761.0 L 491.5,760.0 L 491.5,759.0 L 492.0,758.5 L 492.5,758.0 L 492.5,757.0 L 492.5,756.0 L 492.5,755.0 L 493.0,754.5 L 493.5,754.0 L 493.5,753.0 L 493.5,752.0 L 493.5,751.0 L 494.0,750.5 L 494.5,750.0 L 494.5,749.0 L 494.5,748.0 L 494.5,747.0 L 495.0,746.5 L 495.5,746.0 L 495.5,745.0 L 495.5,744.0 L 496.0,743.5 L 496.5,743.0 L 496.5,742.0 L 496.5,741.0 L 496.5,740.0 L 497.0,739.5 L 497.5,739.0 L 497.5,738.0 L 497.5,737.0 L 498.0,736.5 L 498.5,736.0 L 498.5,735.0 L 498.5,734.0 L 499.0,733.5 L 499.5,733.0 L 499.5,732.0 L 499.5,731.0 L 500.0,730.5 L 500.5,730.0 L 500.5,729.0 L 501.0,728.5 L 501.5,728.0 L 501.5,727.0 L 501.5,726.0 L 502.0,725.5 L 502.5,725.0 L 502.5,724.0 L 503.0,723.5 L 503.5,723.0 L 503.5,722.0 L 503.5,721.0 L 504.0,720.5 L 504.5,720.0 L 504.5,719.0 L 505.0,718.5 L 505.5,718.0 L 505.5,717.0 L 506.0,716.5 L 506.5,716.0 L 506.5,715.0 L 507.0,714.5 L 507.5,714.0 L 507.5,713.0 L 507.5,712.0 L 508.0,711.5 L 508.5,711.0 L 508.5,710.0 L 509.0,709.5 L 509.5,709.0 L 510.0,708.5 L 510.5,708.0 L 510.5,707.0 L 511.0,706.5 L 511.5,706.0 L 511.5,705.0 L 512.0,704.5 L 512.5,704.0 L 512.5,703.0 L 513.0,702.5 L 513.5,702.0 L 513.5,701.0 L 514.0,700.5 L 514.5,700.0 L 514.5,699.0 L 515.0,698.5 L 515.5,698.0 L 516.0,697.5 L 516.5,697.0 L 516.5,696.0 L 517.0,695.5 L 517.5,695.0 L 518.0,694.5 L 518.5,694.0 L 518.5,693.0 L 519.0,692.5 L 519.5,692.0 L 520.0,691.5 L 520.5,691.0 L 521.0,690.5 L 521.5,690.0 L 522.0,689.5 L 522.5,689.0 L 523.0,688.5 L 523.5,688.0 L 524.0,687.5 L 524.5,687.0 L 525.0,686.5 L 526.0,686.5 L 526.5,686.0 L 527.0,685.5 L 528.0,685.5 L 529.0,685.5 L 530.0,685.5 L 531.0,685.5 L 531.5,686.0 L 532.0,686.5 L 533.0,686.5 L 534.0,686.5 L 534.5,687.0 L 535.0,687.5 L 536.0,687.5 L 536.5,688.0 L 537.0,688.5 L 537.5,689.0 L 538.0,689.5 L 538.5,690.0 L 538.5,691.0 L 539.0,691.5 L 539.5,692.0 L 540.0,692.5 L 540.5,693.0 L 541.0,693.5 L 541.5,694.0 L 542.0,694.5 L 542.5,695.0 L 543.0,695.5 L 543.5,696.0 L 543.5,697.0 L 544.0,697.5 L 544.5,698.0 L 545.0,698.5 L 545.5,699.0 L 546.0,699.5 L 546.5,700.0 L 547.0,700.5 L 547.5,701.0 L 548.0,701.5 L 548.5,702.0 L 549.0,702.5 L 549.5,703.0 L 549.5,704.0 L 550.0,704.5 L 550.5,705.0 L 551.0,705.5 L 551.5,706.0 L 552.0,706.5 L 552.5,707.0 L 553.0,707.5 L 553.5,708.0 L 554.0,708.5 L 554.5,709.0 L 554.5,710.0 L 555.0,710.5 L 555.5,711.0 L 556.0,711.5 L 556.5,712.0 L 557.0,712.5 L 557.5,713.0 L 558.0,713.5 L 558.5,714.0 L 558.5,715.0 L 559.0,715.5 L 559.5,716.0 L 560.0,716.5 L 560.5,717.0 L 561.0,717.5 L 561.5,718.0 L 562.0,718.5 L 562.5,719.0 L 563.0,719.5 L 563.5,720.0 L 564.0,720.5 L 564.5,721.0 L 564.5,722.0 L 565.0,722.5 L 565.5,723.0 L 566.0,723.5 L 566.5,724.0 L 567.0,724.5 L 567.5,725.0 L 568.0,725.5 L 568.5,726.0 L 569.0,726.5 L 569.5,727.0 L 569.5,728.0 L 570.0,728.5 L 570.5,729.0 L 571.0,729.5 L 571.5,730.0 L 572.0,730.5 L 572.5,731.0 L 573.0,731.5 L 573.5,732.0 L 574.0,732.5 L 574.5,733.0 L 574.5,734.0 L 575.0,734.5 L 575.5,735.0 L 576.0,735.5 L 576.5,736.0 L 577.0,736.5 L 577.5,737.0 L 578.0,737.5 L 578.5,738.0 L 579.0,738.5 L 579.5,739.0 L 579.5,740.0 L 580.0,740.5 L 580.5,741.0 L 581.0,741.5 L 581.5,742.0 L 582.0,742.5 L 582.5,743.0 L 583.0,743.5 L 583.5,744.0 L 584.0,744.5 L 584.5,745.0 L 584.5,746.0 L 585.0,746.5 L 585.5,747.0 L 586.0,747.5 L 586.5,748.0 L 587.0,748.5 L 587.5,749.0 L 588.0,749.5 L 588.5,750.0 L 589.0,750.5 L 589.5,751.0 L 589.5,752.0 L 590.0,752.5 L 590.5,753.0 L 591.0,753.5 L 591.5,754.0 L 592.0,754.5 L 592.5,755.0 L 593.0,755.5 L 593.5,756.0 L 594.0,756.5 L 594.5,757.0 L 594.5,758.0 L 595.0,758.5 L 595.5,759.0 L 596.0,759.5 L 596.5,760.0 L 597.0,760.5 L 597.5,761.0 L 598.0,761.5 L 598.5,762.0 L 599.0,762.5 L 599.5,763.0 L 599.5,764.0 L 600.0,764.5 L 600.5,765.0 L 601.0,765.5 L 601.5,766.0 L 602.0,766.5 L 602.5,767.0 L 603.0,767.5 L 603.5,768.0 L 603.5,769.0 L 604.0,769.5 L 604.5,770.0 L 605.0,770.5 L 605.5,771.0 L 606.0,771.5 L 606.5,772.0 L 607.0,772.5 L 607.5,773.0 L 608.0,773.5 L 608.5,774.0 L 608.5,775.0 L 609.0,775.5 L 609.5,776.0 L 610.0,776.5 L 610.5,777.0 L 611.0,777.5 L 611.5,778.0 L 612.0,778.5 L 612.5,779.0 L 613.0,779.5 L 613.5,780.0 L 614.0,780.5 L 614.5,781.0 L 614.5,782.0 L 615.0,782.5 L 615.5,783.0 L 616.0,783.5 L 616.5,784.0 L 617.0,784.5 L 617.5,785.0 L 618.0,785.5 L 618.5,786.0 L 618.5,787.0 L 619.0,787.5 L 619.5,788.0 L 620.0,788.5 L 620.5,789.0 L 621.0,789.5 L 621.5,790.0 L 622.0,790.5 L 622.5,791.0 L 623.0,791.5 L 623.5,792.0 L 623.5,793.0 L 624.0,793.5 L 624.5,794.0 L 625.0,794.5 L 625.5,795.0 L 626.0,795.5 L 626.5,796.0 L 627.0,796.5 L 627.5,797.0 L 628.0,797.5 L 628.5,798.0 L 628.5,799.0 L 629.0,799.5 L 629.5,800.0 L 630.0,800.5 L 630.5,801.0 L 631.0,801.5 L 631.5,802.0 L 632.0,802.5 L 632.5,803.0 L 633.0,803.5 L 633.5,804.0 L 633.5,805.0 L 634.0,805.5 L 634.5,806.0 L 635.0,806.5 L 635.5,807.0 L 636.0,807.5 L 636.5,808.0 L 637.0,808.5 L 637.5,809.0 L 637.5,810.0 L 638.0,810.5 L 638.5,811.0 L 639.0,811.5 L 639.5,812.0 L 640.0,812.5 L 640.5,813.0 L 641.0,813.5 L 641.5,814.0 L 642.0,814.5 L 642.5,815.0 L 643.0,815.5 L 643.5,816.0 L 643.5,817.0 L 644.0,817.5 L 644.5,818.0 L 645.0,818.5 L 645.5,819.0 L 646.0,819.5 L 646.5,820.0 L 647.0,820.5 L 647.5,821.0 L 648.0,821.5 L 648.5,822.0 L 648.5,823.0 L 649.0,823.5 L 649.5,824.0 L 650.0,824.5 L 650.5,825.0 L 651.0,825.5 L 651.5,826.0 L 652.0,826.5 L 652.5,827.0 L 652.5,828.0 L 653.0,828.5 L 653.5,829.0 L 654.0,829.5 L 654.5,830.0 L 655.0,830.5 L 655.5,831.0 L 656.0,831.5 L 656.5,832.0 L 657.0,832.5 L 657.5,833.0 L 657.5,834.0 L 658.0,834.5 L 658.5,835.0 L 659.0,835.5 L 659.5,836.0 L 660.0,836.5 L 660.5,837.0 L 661.0,837.5 L 661.5,838.0 L 662.0,838.5 L 662.5,839.0 L 663.0,839.5 L 663.5,840.0 L 663.5,841.0 L 664.0,841.5 L 664.5,842.0 L 665.0,842.5 L 665.5,843.0 L 666.0,843.5 L 666.5,844.0 L 667.0,844.5 L 667.5,845.0 L 668.0,845.5 L 668.5,846.0 L 668.5,847.0 L 669.0,847.5 L 669.5,848.0 L 670.0,848.5 L 670.5,849.0 L 671.0,849.5 L 671.5,850.0 L 672.0,850.5 L 672.5,851.0 L 673.0,851.5 L 673.5,852.0 L 673.5,853.0 L 674.0,853.5 L 674.5,854.0 L 675.0,854.5 L 675.5,855.0 L 676.0,855.5 L 676.5,856.0 L 677.0,856.5 L 677.5,857.0 L 677.5,858.0 L 678.0,858.5 L 678.5,859.0 L 679.0,859.5 L 679.5,860.0 L 680.0,860.5 L 680.5,861.0 L 681.0,861.5 L 681.5,862.0 L 682.0,862.5 L 682.5,863.0 L 682.5,864.0 L 683.0,864.5 L 683.5,865.0 L 684.0,865.5 L 684.5,866.0 L 685.0,866.5 L 685.5,867.0 L 686.0,867.5 L 686.5,868.0 L 687.0,868.5 L 687.5,869.0 L 688.0,869.5 L 688.5,870.0 L 688.5,871.0 L 689.0,871.5 L 689.5,872.0 L 690.0,872.5 L 690.5,873.0 L 691.0,873.5 L 691.5,874.0 L 692.0,874.5 L 692.5,875.0 L 692.5,876.0 L 693.0,876.5 L 693.5,877.0 L 694.0,877.5 L 694.5,878.0 L 695.0,878.5 L 695.5,879.0 L 696.0,879.5 L 696.5,880.0 L 697.0,880.5 L 697.5,881.0 L 697.5,882.0 L 698.0,882.5 L 698.5,883.0 L 699.0,883.5 L 699.5,884.0 L 700.0,884.5 L 700.5,885.0 L 701.0,885.5 L 701.5,886.0 L 702.0,886.5 L 702.5,887.0 L 702.5,888.0 L 703.0,888.5 L 703.5,889.0 L 704.0,889.5 L 704.5,890.0 L 705.0,890.5 L 705.5,891.0 L 706.0,891.5 L 706.5,892.0 L 706.5,893.0 L 707.0,893.5 L 707.5,894.0 L 708.0,894.5 L 708.5,895.0 L 709.0,895.5 L 709.5,896.0 L 710.0,896.5 L 710.5,897.0 L 711.0,897.5 L 711.5,898.0 L 712.0,898.5 L 712.5,899.0 L 712.5,900.0 L 713.0,900.5 L 713.5,901.0 L 714.0,901.5 L 714.5,902.0 L 715.0,902.5 L 715.5,903.0 L 716.0,903.5 L 716.5,904.0 L 716.5,905.0 L 717.0,905.5 L 717.5,906.0 L 718.0,906.5 L 718.5,907.0 L 719.0,907.5 L 719.5,908.0 L 720.0,908.5 L 720.5,909.0 L 721.0,909.5 L 721.5,910.0 L 721.5,911.0 L 722.0,911.5 L 722.5,912.0 L 723.0,912.5 L 723.5,913.0 L 724.0,913.5 L 724.5,914.0 L 725.0,914.5 L 725.5,915.0 L 726.0,915.5 L 726.5,916.0 L 726.5,917.0 L 727.0,917.5 L 727.5,918.0 L 728.0,918.5 L 728.5,919.0 L 729.0,919.5 L 729.5,920.0 L 730.0,920.5 L 730.5,921.0 L 731.0,921.5 L 731.5,922.0 L 731.5,923.0 L 732.0,923.5 L 732.5,924.0 L 733.0,924.5 L 733.5,925.0 L 734.0,925.5 L 734.5,926.0 L 735.0,926.5 L 735.5,927.0 L 735.5,928.0 L 736.0,928.5 L 736.5,929.0 L 737.0,929.5 L 737.5,930.0 L 738.0,930.5 L 738.5,931.0 L 739.0,931.5 L 739.5,932.0 L 739.5,933.0 L 740.0,933.5 L 740.5,934.0 L 741.0,934.5 L 741.5,935.0 L 742.0,935.5 L 742.5,936.0 L 743.0,936.5 L 743.5,937.0 L 744.0,937.5 L 744.5,938.0 L 744.5,939.0 L 745.0,939.5 L 745.5,940.0 L 746.0,940.5 L 746.5,941.0 L 747.0,941.5 L 747.5,942.0 L 748.0,942.5 L 748.5,943.0 L 748.5,944.0 L 749.0,944.5 L 749.5,945.0 L 750.0,945.5 L 750.5,946.0 L 751.0,946.5 L 751.5,947.0 L 752.0,947.5 L 752.5,948.0 L 753.0,948.5 L 753.5,949.0 L 753.5,950.0 L 754.0,950.5 L 754.5,951.0 L 755.0,951.5 L 755.5,952.0 L 756.0,952.5 L 756.5,953.0 L 756.5,954.0 L 756.0,954.5 Z" fill="#ff7a00" fill-rule="evenodd" stroke="none" /></svg>